<svg width="2906" height="2346" viewBox="0 0 2906 2346" fill="none" xmlns="http://www.w3.org/2000/svg">
<g clip-path="url(#clip0_7_37)">
<rect width="2906" height="2346" fill="white"/>
<path d="M2905.78 0.220215H0.220215V2345.78H2905.78V0.220215Z" fill="white"/>
<path d="M2905.56 0H0V2345.56H2905.56V0Z" stroke="none"/>
<mask id="mask0_7_37" style="mask-type:luminance" maskUnits="userSpaceOnUse" x="57" y="0" width="2617" height="2135">
<path d="M2673.48 0H57.248V2134.17H2673.48V0Z" fill="white"/>
</mask>
<g mask="url(#mask0_7_37)">
<path d="M1231.66 370.861C1289.64 367.49 1346.83 354.644 1405 353.134C1429.89 352.489 1455.47 352.022 1480.33 353.464C1511.79 355.291 1543.29 359.301 1574.72 362.007C1592.24 363.515 1611.79 369.124 1629.19 368.188C1639.18 367.651 1653.88 361.885 1662.38 356.872L1663.02 355.593L1658.6 354.623C1660.04 350.341 1672.6 343.034 1676.93 339.886C1711.41 314.846 1741.77 293.206 1780.27 273.967C1797.55 265.327 1827.54 252.56 1847.16 258.539C1861.8 263.005 1870.38 280.557 1876.63 293.232C1911.86 364.725 1927.2 460.233 1925.86 539.58C1925.41 566.312 1922.51 592.934 1919.05 619.424C1930.79 645.157 1943.19 670.845 1952.74 697.489C1959.59 716.576 1964.64 736.742 1969.94 756.326C1980.67 755.269 1993.66 756.727 2003.88 754.067C2026.95 748.06 2047.11 735.117 2069.8 728.176C2098.28 719.465 2198.18 705.258 2221.02 727.005C2222.33 728.246 2222.26 728.308 2223.05 729.625C2222.45 732.223 2222.42 732.62 2219.95 734.033C2208.16 740.785 2170.82 740.758 2156.07 742.022C2104.97 746.413 2012.97 760.281 1972.46 793.355C1971.8 804.061 1971.43 814.573 1972.61 825.275C1999.63 823.738 2025.93 819.748 2052.79 817.493C2098.65 813.64 2145.45 815.657 2190.31 826.081C2205.48 829.604 2225.61 835.003 2237.56 845.551C2240.27 847.938 2241.88 849.972 2242.63 853.504C2241.92 855.834 2241.98 856.526 2239.6 857.649C2236.5 859.119 2232.27 858.767 2228.95 858.432C2217.3 857.261 2205.68 854.205 2194.14 852.188C2170.44 848.043 2146.44 844.564 2122.45 842.803C2073.08 839.169 2017.63 840.134 1970.21 855.993C1963.83 890.89 1945.76 943.306 1926.87 973.513C1969.88 981.669 2020.05 1007.99 2044.69 1044.51C2070.26 1082.43 2076.8 1127.13 2067.76 1171.64C2058.46 1217.55 2028.57 1254.49 1989.95 1279.6C1965.38 1295.57 1936.85 1304.11 1907.58 1301.52C1905.31 1331.68 1904.81 1362.67 1906.02 1392.9C1929.36 1404.4 1958.5 1414.27 1979.91 1427.72C2001.2 1441.08 2020.72 1468.62 2028.64 1492.24C2040.82 1528.55 2040.62 1564.85 2023 1599.31C2009.75 1625.24 1987.12 1647.52 1958.93 1656.3C1919.26 1668.65 1830.64 1659.44 1784.47 1662.32C1771.28 1663.15 1759.21 1667.94 1746.54 1671.22C1730.68 1675.35 1713.24 1677.05 1696.87 1676.49C1681.35 1675.98 1664.2 1672.87 1649.16 1668.82C1639.61 1666.24 1629.93 1662.67 1620.09 1661.31C1604.33 1659.14 1586.14 1661.41 1570.09 1661.59C1541.57 1661.95 1512.95 1661.31 1484.44 1662.06C1468.14 1662.49 1453.57 1674.22 1438.49 1679.62C1413.12 1688.72 1383.49 1692.81 1356.66 1692.54C1330.13 1692.27 1299.93 1687.78 1274.86 1679C1259.49 1673.61 1242.87 1662.75 1226.64 1661.68C1207.67 1660.42 1188.03 1661.47 1169.01 1661.52C1132.08 1661.57 1095.15 1661.81 1058.21 1662.23C1034.78 1662.49 1010.31 1663.75 987.036 1660.86C973.001 1659.12 958.716 1655.41 946.196 1648.7C915.502 1632.27 898.006 1602.82 888.49 1570.17C878.511 1535.94 888.252 1504.35 905.101 1473.79C932.668 1423.79 952.269 1430.98 994.527 1404.52C1000.79 1389.71 1004.83 1370.32 1007.21 1354.45C1009.2 1341.23 1009.83 1289.17 1016.84 1281.94C1017.78 1280.35 1018.69 1278.72 1019.66 1277.16C1030.15 1260.42 1016.99 1169.5 1031.82 1154.93C1040.7 1146.2 1037.13 1139.86 1038.46 1128.82C1038.88 1125.39 1040.02 1124.11 1042.5 1121.87C1044.12 1121.61 1046.37 1121.45 1047.84 1120.78C1053.68 1118.11 1051.95 1108.4 1052.68 1103.22C1053.77 1095.58 1061.15 1094.62 1063.74 1088.58C1066.37 1082.45 1067.02 1074.88 1069.66 1068.35C1061.6 1063.7 1053.65 1055.94 1046.33 1050.06C1007.18 1018.58 969.531 982.616 944.782 938.263C932.646 916.508 925.111 892.268 912.177 871.076C869.109 869.689 797.659 884.284 755.159 894.686C733.088 900.085 710.532 907.074 688.051 910.342C682.956 911.082 678.544 911.835 674.219 908.642L674.061 905.965C698.823 879.078 751.72 869.315 786.183 860.806C805.824 856.521 826.75 852.575 846.774 850.809C863.156 849.365 881.25 850.435 897.152 846.335C902.023 845.08 906.193 842.561 910.46 839.993C910.874 830.529 913.468 813.305 907.03 805.88C896.505 793.738 786.619 783.089 763.984 781.808C740.737 780.491 716.733 781.728 693.657 779.214C689.055 778.716 686.959 777.875 684.092 774.246L684.788 771.229C705.486 748.113 812.372 757.793 841.718 762.778C857.893 765.531 890.943 777.549 905.449 774.827C909.39 774.087 910.619 771.705 912.569 768.547C916.273 762.54 916.489 761.695 923.103 759.149C928.542 751.297 925.085 733.417 925.552 723.79C925.798 718.699 925.983 711.322 929.951 707.781C950.08 702.501 933.474 682.053 943.585 668.33C947.112 666.393 947.579 666.696 951.41 667.159C953.013 655.761 956.052 644.311 956.316 632.733C956.589 621.018 954.576 608.987 954.145 597.241C953.317 574.499 954.14 551.62 954.211 528.861C954.299 501.221 951.238 469.579 958.623 442.776L961.561 435.816C967.545 421.669 967.378 405.92 969.972 390.985C971.861 380.113 976.203 369.755 979.114 359.126C981.518 350.351 982.152 340.964 985.834 332.614C986.838 330.892 987.78 329.135 988.784 327.417C993.258 319.782 994.474 311.351 997.09 303.01C1001.22 289.811 1009.6 276.632 1022.31 270.282C1033.27 264.804 1044.88 266.232 1056.13 269.688C1071.86 272.35 1087.23 280.754 1101.24 288.116C1123.97 300.065 1146.65 312.575 1167.75 327.25C1189.06 342.068 1208.57 358.71 1231.66 370.861Z" fill="black"/>
<path d="M1903.22 1460.64C1904.26 1460.95 1904.58 1461.01 1905.69 1461.54C1930.06 1473.26 1954.27 1491.53 1964.17 1517.36C1969.99 1532.5 1969.59 1546.25 1962.88 1561C1956.27 1575.49 1950.89 1580.44 1935.91 1586.15C1911.74 1594.21 1893.68 1583.02 1869.72 1583.16C1894.07 1546.31 1901.66 1504.02 1903.22 1460.64Z" fill="#FEFEFE"/>
<path d="M1083.69 1335.88C1097.53 1344.83 1113.8 1350.07 1127.07 1359.5C1130.31 1367.44 1137.61 1382.57 1131.81 1390.31C1129.44 1393.49 1126.67 1395.91 1125.58 1399.87C1122.15 1412.42 1123.52 1428.48 1123.42 1441.51C1123.3 1458.7 1122.47 1476.54 1124.38 1493.64C1127.92 1525.27 1143.9 1556.35 1158.62 1584.03C1116.4 1590.62 1081.61 1587.49 1039.62 1587.92C1020.72 1588.09 993.17 1589.77 976.194 1580.57C966.761 1575.44 960.437 1563.57 957.791 1553.47C953.51 1537.11 956.743 1518.51 965.374 1504.06C980.285 1479.12 1007.82 1470.24 1035.41 1468.49C1044.59 1467.93 1056.13 1468.49 1064.82 1465.27C1068.17 1464.02 1069.19 1458.31 1069.85 1455.07C1077.42 1417.93 1072.6 1372.59 1083.69 1335.88Z" fill="#FEFEFE"/>
<path d="M1889.92 1033.49C1919 1030.58 1948.77 1040.76 1971.97 1058.19C1995.06 1075.55 2003.7 1099.8 2007.58 1127.56C2010.09 1145.66 2005.5 1156.87 2002.13 1174.2C2001.18 1179 2000.98 1186.97 1998.2 1190.68C1996.58 1190.86 1994.27 1190.9 1992.79 1191.53C1989.79 1192.8 1989.64 1194.19 1988.56 1197C1989.28 1200.12 1990.1 1202.5 1988.86 1205.62C1977.89 1216.54 1947.25 1225.89 1931.81 1229.95C1906.36 1233.34 1879.12 1226.22 1857.68 1212.16C1832.86 1195.88 1814.6 1170.52 1808.73 1141.27C1803.95 1117.43 1809.27 1093.63 1822.91 1073.57C1838.72 1050.36 1862.96 1038.54 1889.92 1033.49Z" fill="#FEFEFE"/>
<path d="M1187.4 1087.71C1216.58 1086.22 1247.05 1096.32 1270.42 1113.59C1289.8 1127.93 1306.19 1146.27 1309.55 1170.86C1314 1203.43 1310.92 1251.01 1289.38 1277.64C1273.95 1296.72 1235.49 1302.75 1212.93 1304.54C1181.95 1306.38 1151.84 1297.58 1127.64 1277.9C1104.77 1259.3 1090.8 1228.76 1088.21 1199.73C1085.62 1170.78 1091.92 1144.26 1110.81 1121.81C1131.6 1097.09 1156.49 1090.27 1187.4 1087.71Z" fill="#FEFEFE"/>
<path d="M1590.94 1086.52C1637.33 1086.59 1720.28 1103.84 1744.15 1148.01C1756.6 1171.04 1761.36 1197.5 1775.95 1219.51C1790.23 1241.04 1812.44 1258.32 1831.59 1275.37C1832.99 1298.42 1832.58 1321.62 1832.71 1344.71C1833.18 1381.4 1833.08 1418.08 1832.42 1454.76C1832.14 1470.17 1834.08 1488.43 1831.78 1503.48C1830.14 1514.2 1822.22 1519.53 1819.51 1528.74C1817.89 1534.22 1819.46 1542.5 1817.43 1547.38C1816.15 1550.46 1808.42 1553.3 1805.41 1554.84C1804.94 1557.49 1804.5 1560.23 1803.7 1562.8C1799.87 1575 1768.79 1594.48 1757.1 1599.55C1730.63 1611.01 1687.56 1610.95 1660.95 1599.24C1641.39 1590.63 1627.55 1577.23 1619.86 1557.13C1618.02 1552.33 1616.51 1546.33 1618.51 1541.33C1624.47 1526.41 1642.53 1509.42 1653.69 1497.65C1686.92 1462.61 1728.16 1425.35 1747.93 1380.45C1764.24 1343.42 1762.74 1293.88 1748.06 1256.59C1732.89 1218.04 1702.06 1185.05 1663.78 1168.72C1626.47 1152.8 1585.31 1149.77 1547.46 1165.04C1524.29 1174.38 1504.51 1187.91 1487.09 1205.74C1481.29 1211.68 1476.15 1218.9 1469.94 1224.35C1463.46 1230.02 1452.88 1233.86 1449.46 1242.1C1448.63 1244.1 1447.67 1246.03 1446.74 1247.98C1445.27 1248.51 1443.84 1249.07 1442.39 1249.63C1434.98 1252.54 1422.35 1276.22 1415.73 1283.09C1412.45 1283.8 1410.27 1284.17 1407.77 1286.6C1407.14 1289.44 1406.63 1292.38 1405.06 1294.87C1398.23 1305.81 1342.11 1354.67 1329.91 1364.7C1309.42 1381.52 1280.69 1398.52 1268.49 1422.8C1260 1439.7 1261.69 1471.52 1267.56 1489.01C1275.29 1512.07 1298.74 1535.66 1320.34 1546.17C1345.14 1558.24 1371.89 1558.11 1397.64 1548.95C1411.71 1543.94 1425.47 1532.76 1436.74 1523.15C1472.08 1493.02 1503.9 1457.7 1536.47 1424.6C1560.53 1400.17 1586.77 1376.57 1609.19 1350.7C1614.61 1344.45 1619.41 1338.4 1622.9 1330.88C1623.08 1330.46 1623.26 1330.03 1623.46 1329.61C1625.69 1322.65 1626.88 1315.35 1624.82 1308.17C1622.74 1300.87 1618.42 1294.19 1611.52 1290.63C1604.03 1286.78 1595.77 1287.17 1588.01 1290.02C1575.94 1294.44 1553.51 1314.64 1548.27 1326.06C1549.22 1327.78 1550.12 1329.5 1550.97 1331.26C1550.6 1332.2 1550.04 1333.75 1549.41 1334.52C1546.69 1337.85 1542.03 1336.88 1538.23 1337.83C1535.55 1338.5 1534.53 1340.03 1533.09 1342.21C1534.11 1343.89 1534.81 1345.33 1535.4 1347.2C1535.01 1348.06 1534.43 1349.46 1533.81 1350.15C1531.36 1352.88 1528.75 1352.03 1525.51 1351.87C1522.6 1353.06 1521.58 1354.13 1519.63 1356.48L1520.48 1360.13L1518.41 1362.1C1514.22 1363.06 1510.97 1363.56 1507.77 1366.57C1506.84 1370.12 1506.32 1372.72 1503.73 1375.42C1498.41 1377.09 1495.59 1378.02 1492.57 1382.92C1492.84 1383.74 1493.36 1385.23 1493.54 1386.01C1494.12 1388.41 1494.01 1388.81 1491.89 1390.25C1488.48 1392.58 1483.83 1392.57 1480.42 1394.89C1476.67 1397.42 1479.16 1399.92 1477.29 1402.83C1474.79 1406.71 1461.37 1414.75 1456.73 1418.46C1443.17 1429.33 1427.07 1444.29 1418 1459.21L1419.2 1462.13L1417.6 1464.42C1416.87 1464.52 1416.14 1464.63 1415.41 1464.75C1411.06 1465.48 1409.54 1466.44 1406.97 1470.08C1407.76 1472.74 1408.32 1474.09 1407.45 1476.83C1399.89 1484.9 1382.19 1491.65 1371.74 1495.09C1359.5 1492.19 1345.67 1487.63 1337.06 1477.95C1331.7 1471.94 1329.5 1464.67 1329.89 1456.7C1329.92 1456.15 1329.97 1455.63 1330 1455.08C1330.16 1452.64 1330.71 1451.24 1331.96 1449.1C1342.87 1430.56 1363.65 1413.58 1379.07 1398.57L1436.94 1342.16C1471.5 1308.28 1504.88 1270.42 1542.81 1240.43C1553.86 1231.71 1566.19 1223.65 1580.01 1220.21C1581.35 1219.89 1582.71 1219.59 1584.08 1219.33C1585.45 1219.07 1586.82 1218.84 1588.19 1218.65C1589.57 1218.45 1590.95 1218.29 1592.33 1218.17C1593.72 1218.04 1595.11 1217.96 1596.49 1217.9C1597.88 1217.85 1599.27 1217.82 1600.66 1217.84C1602.05 1217.85 1603.44 1217.9 1604.83 1217.99C1606.22 1218.07 1607.6 1218.18 1608.98 1218.34C1610.36 1218.49 1611.74 1218.68 1613.11 1218.9C1614.49 1219.12 1615.85 1219.37 1617.21 1219.66C1618.57 1219.96 1619.92 1220.28 1621.26 1220.63C1622.6 1220.99 1623.94 1221.38 1625.26 1221.8C1626.59 1222.23 1627.91 1222.69 1629.2 1223.17C1630.51 1223.66 1631.79 1224.18 1633.07 1224.73C1634.34 1225.29 1635.6 1225.87 1636.85 1226.49C1638.1 1227.1 1639.33 1227.75 1640.54 1228.43C1641.75 1229.11 1642.94 1229.82 1644.13 1230.55C1663.77 1242.86 1683.13 1265.73 1688.39 1288.69C1692.75 1307.74 1689.68 1325.43 1688.68 1344.39C1688.42 1349.28 1690.64 1359.08 1688.32 1362.73C1687.02 1360.98 1687.19 1360.64 1685.01 1359.96C1679.9 1368.64 1674.33 1377.09 1667.87 1384.84C1656.74 1398.18 1643.56 1410.23 1631.5 1422.75C1604.58 1450.7 1577.71 1478.42 1550.04 1505.64C1524.22 1531.06 1500.02 1557.94 1471.72 1580.78C1470.57 1581.7 1469.4 1582.6 1468.22 1583.49C1467.05 1584.38 1465.86 1585.25 1464.67 1586.11C1463.47 1586.97 1462.26 1587.81 1461.03 1588.65C1459.82 1589.48 1458.59 1590.29 1457.35 1591.09C1456.11 1591.89 1454.86 1592.67 1453.61 1593.44C1452.35 1594.21 1451.08 1594.96 1449.8 1595.7C1448.53 1596.44 1447.24 1597.16 1445.95 1597.87C1444.66 1598.59 1443.36 1599.28 1442.04 1599.95C1440.73 1600.64 1439.41 1601.3 1438.09 1601.93C1436.76 1602.58 1435.42 1603.2 1434.09 1603.82C1432.74 1604.44 1431.39 1605.03 1430.04 1605.61C1428.68 1606.19 1427.32 1606.75 1425.95 1607.29C1424.58 1607.84 1423.2 1608.37 1421.82 1608.88C1420.43 1609.4 1419.04 1609.9 1417.65 1610.37C1416.26 1610.85 1414.86 1611.31 1413.45 1611.75C1412.05 1612.2 1410.64 1612.64 1409.23 1613.05C1407.8 1613.46 1406.38 1613.84 1404.95 1614.21C1403.53 1614.59 1402.1 1614.95 1400.67 1615.3C1399.23 1615.64 1397.79 1615.96 1396.35 1616.27C1394.91 1616.57 1393.46 1616.86 1392.01 1617.13C1390.56 1617.41 1389.11 1617.66 1387.65 1617.9C1386.2 1618.14 1384.74 1618.35 1383.28 1618.55C1381.82 1618.75 1380.36 1618.94 1378.89 1619.11C1377.42 1619.27 1375.96 1619.41 1374.49 1619.55C1373.02 1619.67 1371.54 1619.78 1370.08 1619.88C1368.61 1619.97 1367.13 1620.04 1365.66 1620.1C1364.19 1620.16 1362.71 1620.2 1361.24 1620.22C1359.77 1620.25 1358.29 1620.25 1356.81 1620.24C1355.33 1620.22 1353.86 1620.19 1352.39 1620.14C1350.91 1620.09 1349.44 1620.02 1347.97 1619.94C1346.5 1619.86 1345.03 1619.76 1343.56 1619.63C1342.09 1619.51 1340.63 1619.37 1339.16 1619.22C1300.47 1614.89 1256.44 1595.57 1231.79 1564.56C1222.84 1553.3 1216.27 1540.91 1210 1528.04C1191.83 1490.79 1185.81 1458.95 1193.31 1417.45C1196.2 1401.44 1202.98 1385.86 1204.64 1369.73L1204.77 1368.29C1236.72 1366.92 1267.9 1359.83 1295.02 1342.21C1337.32 1314.72 1356.83 1278.4 1367.08 1230.41C1387.69 1208.78 1409.45 1188.08 1431.11 1167.5C1484.8 1116.5 1513.99 1092.97 1590.94 1086.52Z" fill="#FEFEFE"/>
<path d="M1656.18 456.459C1672.7 446.497 1684.99 432.515 1699.2 419.702C1732.3 389.856 1767.73 366.061 1809.59 350.359C1815.41 361.364 1821.48 371.64 1830.1 380.699C1831.26 392.531 1832.4 404.406 1834.93 416.039C1837.58 428.228 1841.42 440.131 1843.43 452.46C1846.55 471.671 1846.4 492.215 1846.69 511.659C1847 531.358 1846.26 550.986 1845.83 570.676C1845.64 578.899 1846.3 587.218 1845.84 595.418C1845.1 608.348 1837.47 618.83 1839.38 632.456C1842.43 654.299 1857.22 675.016 1866.78 694.609C1878.17 717.981 1889.42 758.475 1890.3 784.397C1890 784.723 1889.71 785.053 1889.4 785.375C1879.99 795.359 1833.98 815.432 1831.77 822.972C1833.6 825.389 1834.6 826.2 1837.69 826.658C1853.08 828.943 1873.47 820.395 1888.01 815.507C1887.9 816.207 1887.77 816.903 1887.66 817.603C1884.45 838.712 1890.54 858.309 1886.55 881.439C1885.32 888.657 1879.19 895.994 1876.57 903.085C1854.7 962.349 1846.01 971.219 1797.57 1011.3C1786.51 1020.46 1776.32 1031.13 1764.34 1039.12C1759.48 1042.36 1754.15 1044.8 1749.12 1047.79C1696.49 1028.77 1661.27 1016.85 1604.08 1016.65C1581.25 1016.56 1560.17 1017.96 1537.83 1022.93C1522.12 1026.43 1506.81 1030.04 1492.15 1036.92C1481.6 1041.86 1470.15 1047.65 1461.64 1055.76L1461.17 1057.22C1462.83 1057.42 1463.94 1057.14 1465.15 1058.36C1450.93 1071.79 1425.89 1085.09 1405.83 1084.3C1397.9 1083.99 1390.05 1082.19 1382.17 1081.36C1360.4 1079.07 1338.17 1079.43 1318.04 1069.41C1294.97 1057.92 1279.41 1045.35 1253.57 1037.88C1232.54 1031.81 1210.78 1032.79 1189.14 1032.91C1175.85 1032.98 1162.66 1033.51 1149.67 1030.18C1115.68 1021.49 1071.77 984.228 1048.32 958.438C1026.9 934.886 1003.5 897.06 997.398 865.739C994.764 852.219 995.57 837.285 994.465 823.518C1008.15 828.543 1021.13 832.779 1035.67 834.735C1041.09 834.515 1048.08 835.017 1052.58 831.643C1051.26 821.805 1011.28 816.339 1005.84 803.224C1007.66 802.617 1009.06 802.233 1010.52 800.908C1010.81 800.639 1011.06 800.335 1011.34 800.049C1004.87 796.011 999.067 791.906 993.408 786.784C997.711 762.369 1002.86 737.31 1011.49 714.004C1019.41 692.601 1035.74 667.916 1038.26 645.667C1040.77 623.674 1031.32 598.703 1028.26 576.75C1018.97 509.875 1028.85 420.562 1055.11 358.192C1094.15 373.427 1128.06 395.419 1160.03 422.38C1174.2 434.333 1187.54 447.753 1203.07 457.935C1216.81 457.133 1229.1 454.103 1242.21 450.021C1247.43 461.431 1261.87 486.116 1264.99 495.545C1267.91 504.379 1264.53 515.107 1268.31 523.955C1271.03 530.332 1278.19 529.499 1279.78 536.779C1281.74 545.807 1278.53 554.954 1280.98 564.119C1281.12 564.661 1281.25 565.211 1281.4 565.748C1283.59 573.544 1288.85 579.819 1291.79 587.275C1297.33 601.368 1301.64 628.554 1315.95 636.648C1318.63 636.943 1319.97 636.882 1322.03 634.913C1340.58 617.156 1346.03 515.481 1347.64 488.071C1348.5 473.56 1347.46 454.64 1351.43 440.852C1352.67 436.557 1354.7 434.328 1358.76 432.664C1362.72 432.504 1365.34 433.056 1368.35 435.801C1373.34 440.336 1374.84 447.387 1378.4 452.967C1382.33 459.128 1389.51 465.179 1392.21 471.812C1393.67 475.44 1394.15 479.708 1394.18 483.592C1394.24 498.165 1392.52 512.786 1398.65 526.522C1401.65 533.256 1405.91 539.58 1407.32 546.917C1409.37 557.676 1406.63 568.391 1407.38 579.167C1408.4 593.789 1419.8 644.976 1430.05 653.995C1432.43 656.087 1433.88 656.149 1436.94 656.114C1445.68 651.441 1449.25 639.546 1451.96 630.575C1458.87 607.696 1462.95 584.179 1466.76 560.631C1469.44 543.984 1479.23 436.924 1490.23 431.352C1492.98 429.967 1496.64 430.493 1499.61 430.608C1509.5 436.385 1507.84 452.43 1513.64 461.123C1515.74 464.259 1518.09 460.493 1519.5 465.465C1525.17 485.186 1520.75 510.791 1520.68 531.265C1520.6 561.278 1525.75 580 1533.91 608.498C1535.59 614.373 1536.25 620.419 1538.3 626.197C1542.4 628.915 1546.03 631.746 1550.96 632.663C1556.34 631.126 1558.89 626.88 1561.55 622.168C1584.17 582.039 1592.7 526.06 1604.8 481.553C1608.08 469.46 1612.66 457.551 1616.84 445.736C1630.67 452.822 1640.17 457.142 1656.18 456.459Z" fill="#FEFEFE"/>
<path d="M1011.34 800.049C1021.89 805.417 1060.41 820.902 1062.41 832.365C1062.71 834.123 1061.74 834.514 1060.71 835.655C1053.44 837.619 1042.9 836.699 1035.67 834.735C1041.09 834.515 1048.08 835.017 1052.58 831.643C1051.26 821.805 1011.28 816.339 1005.84 803.224C1007.66 802.616 1009.06 802.233 1010.52 800.908C1010.81 800.639 1011.06 800.335 1011.34 800.049Z" fill="#2A2827"/>
<path d="M1427.13 833.889C1438.73 832.656 1453.81 831.401 1464.85 835.457C1471.9 838.047 1478.56 843.371 1481.58 850.378C1490.7 871.605 1470.82 881.412 1466.66 893.664C1465.49 897.143 1466.74 900.129 1468.32 903.217C1487.04 939.47 1518.84 913.993 1546.3 923.131C1547.34 924.818 1547.84 926.17 1547.94 928.148C1548.31 936.374 1541.51 944.315 1536.38 950.172C1527.56 960.235 1512.9 971.914 1498.71 971.932C1480.13 971.954 1460.17 965.581 1446.77 952.598C1444.83 951.233 1444.53 951.211 1442.14 951.11C1441.39 951.951 1440.63 952.783 1439.89 953.647C1434.63 959.878 1429.53 964.141 1422.16 967.634C1406.82 974.883 1389.5 976.486 1373.51 970.483C1359.63 965.273 1341.29 953.404 1335.36 939.298C1333.06 933.807 1333.12 927.971 1335.54 922.524C1344.22 902.9 1382.77 925.347 1402.48 917.331C1409.23 914.588 1415.23 908.691 1417.91 901.86C1421.68 892.198 1413.9 882.505 1409.96 874.199C1406.47 866.822 1403.14 856.09 1406.4 848.171C1409.98 839.5 1419.15 836.985 1427.13 833.889Z" fill="black"/>
<path d="M1198.42 766.314C1217.72 758.396 1244.29 756.679 1263.86 764.87C1281.54 772.277 1294.47 787.766 1301.41 805.334C1302.06 806.985 1302.59 808.562 1302.99 810.288C1308.22 831.947 1309.78 856.64 1303.33 878.233C1302.94 879.58 1302.51 880.915 1302.05 882.24C1301.59 883.562 1301.09 884.874 1300.56 886.178C1300.04 887.477 1299.48 888.763 1298.89 890.031C1298.29 891.304 1297.67 892.559 1297.02 893.801C1296.36 895.043 1295.68 896.263 1294.96 897.469C1294.24 898.676 1293.5 899.865 1292.73 901.032C1291.95 902.199 1291.15 903.349 1290.31 904.476C1289.48 905.608 1288.62 906.713 1287.73 907.801C1286.84 908.885 1285.93 909.946 1284.99 910.985C1284.05 912.025 1283.08 913.042 1282.09 914.033C1281.09 915.024 1280.08 915.988 1279.04 916.931C1278 917.869 1276.93 918.785 1275.84 919.67C1274.76 920.555 1273.65 921.414 1272.52 922.246C1271.39 923.079 1270.24 923.88 1269.07 924.655C1267.9 925.426 1266.71 926.17 1265.51 926.883C1264.3 927.597 1263.08 928.28 1261.84 928.936C1260.81 929.486 1259.77 930.01 1258.72 930.508C1257.67 931.01 1256.6 931.481 1255.53 931.926C1254.45 932.371 1253.37 932.789 1252.27 933.181C1251.17 933.573 1250.07 933.934 1248.95 934.269C1247.84 934.608 1246.71 934.912 1245.59 935.194C1244.45 935.471 1243.32 935.722 1242.18 935.943C1241.03 936.167 1239.89 936.361 1238.73 936.524C1237.58 936.687 1236.43 936.823 1235.27 936.929C1234.11 937.035 1232.95 937.114 1231.78 937.162C1230.62 937.211 1229.46 937.229 1228.29 937.22C1227.13 937.207 1225.96 937.167 1224.8 937.101C1223.64 937.03 1222.48 936.933 1221.33 936.806C1220.17 936.678 1219.01 936.524 1217.86 936.339C1216.72 936.154 1215.57 935.938 1214.43 935.696C1213.29 935.454 1212.16 935.185 1211.04 934.886C1209.91 934.586 1208.79 934.26 1207.69 933.904C1194.35 929.729 1170.4 913.755 1167.03 899.385C1165.6 893.277 1167.79 886.495 1164.41 880.712C1163.2 878.634 1161.29 878.673 1159.04 878.158L1157.64 877.854C1156.51 876.189 1155.92 874.912 1155.35 872.957C1150.92 857.834 1149.37 827.605 1157.36 813.53C1168.5 807.386 1163.16 798.926 1169.37 790.202C1176.33 780.434 1191.07 776.382 1197.9 767.068C1198.08 766.821 1198.25 766.565 1198.42 766.314Z" fill="black"/>
<path d="M1222.17 775.919C1228.04 775.074 1233.24 775.312 1238.77 777.69C1254.2 784.336 1260.14 802.291 1265.51 816.74C1259.18 831.692 1252.84 839.156 1238.2 846.075C1231.6 847.66 1225.32 848.638 1218.74 846.247C1210.55 843.27 1204.82 836.677 1201.52 828.767C1197.19 818.409 1196.54 805.334 1201.06 794.984C1205.48 784.877 1212.41 780.024 1222.17 775.919Z" fill="#FEFEFE"/>
<path d="M1648.29 752.79C1669.8 752.42 1688.55 753.103 1706.83 765.76C1725.6 778.747 1736.09 799.855 1739.83 821.963C1739.98 822.782 1740.12 823.606 1740.24 824.434C1740.37 825.262 1740.48 826.085 1740.59 826.913C1740.69 827.746 1740.79 828.574 1740.87 829.406C1740.95 830.238 1741.03 831.066 1741.09 831.898C1741.15 832.735 1741.2 833.568 1741.24 834.4C1741.28 835.237 1741.31 836.069 1741.34 836.906C1741.35 837.738 1741.36 838.575 1741.36 839.412C1741.36 840.244 1741.35 841.081 1741.33 841.918C1741.3 842.75 1741.27 843.587 1741.23 844.419C1741.19 845.251 1741.13 846.084 1741.07 846.916C1741 847.753 1740.93 848.585 1740.85 849.413C1740.76 850.245 1740.66 851.073 1740.55 851.901C1740.44 852.729 1740.33 853.557 1740.2 854.381C1740.08 855.209 1739.94 856.032 1739.79 856.856C1739.64 857.675 1739.48 858.494 1739.31 859.313C1739.14 860.132 1738.97 860.947 1738.78 861.762C1738.59 862.572 1738.39 863.383 1738.17 864.193C1737.96 865.003 1737.74 865.805 1737.51 866.611C1737.28 867.412 1737.04 868.209 1736.8 869.006C1736.54 869.804 1736.28 870.596 1736.01 871.389C1735.74 872.177 1735.45 872.966 1735.16 873.745C1734.87 874.529 1734.57 875.309 1734.26 876.084C1733.95 876.859 1733.63 877.629 1733.3 878.396C1732.97 879.162 1732.63 879.928 1732.27 880.686C1731.93 881.443 1731.57 882.196 1731.2 882.945C1730.83 883.698 1730.46 884.442 1730.06 885.182C1729.67 885.922 1729.28 886.653 1728.88 887.384C1728.46 888.115 1728.05 888.838 1727.63 889.56C1727.21 890.278 1726.77 890.991 1726.33 891.7C1725.88 892.405 1725.43 893.109 1724.97 893.805C1724.51 894.506 1724.05 895.193 1723.57 895.88C1723.08 896.562 1722.59 897.24 1722.11 897.914C1721.26 899.09 1720.38 900.239 1719.48 901.371C1718.58 902.499 1717.64 903.604 1716.68 904.692C1715.73 905.771 1714.75 906.832 1713.74 907.867C1712.73 908.902 1711.7 909.911 1710.63 910.893C1709.57 911.875 1708.48 912.83 1707.38 913.76C1706.27 914.689 1705.14 915.587 1703.99 916.459C1702.83 917.331 1701.66 918.177 1700.47 918.992C1699.27 919.802 1698.05 920.586 1696.82 921.339C1695.58 922.096 1694.33 922.814 1693.05 923.506C1691.79 924.197 1690.5 924.858 1689.2 925.483C1687.89 926.113 1686.58 926.707 1685.25 927.267C1683.92 927.826 1682.57 928.355 1681.21 928.848C1679.85 929.345 1678.48 929.803 1677.1 930.231C1675.71 930.653 1674.32 931.045 1672.92 931.402C1671.52 931.759 1670.11 932.08 1668.69 932.367C1667.28 932.653 1665.85 932.904 1664.42 933.12C1652.08 933.745 1641.39 932.86 1629.95 927.905C1608.13 918.45 1594.92 901.028 1586.32 879.387C1575.37 851.805 1575.5 828.758 1587.15 801.753L1588.33 801.806L1590.52 804.849C1593.81 800.08 1588.28 792.478 1597.33 781.244C1610.23 765.227 1627.88 754.904 1648.29 752.79Z" fill="black"/>
<path d="M1650.55 771.022C1656.12 770.331 1662.1 769.82 1667.3 772.255C1676.68 776.633 1682.99 785.873 1686.6 795.275C1690.79 806.179 1692.56 821.598 1687.71 832.48C1681.12 835.963 1674.73 840.887 1667.18 841.697C1661.26 842.138 1655.33 842.561 1649.62 840.618C1641.13 837.738 1634.3 831.317 1630.37 823.328C1625.7 813.798 1624.78 801.621 1628.5 791.62C1632.71 780.275 1640 775.506 1650.55 771.022Z" fill="#FEFEFE"/>
</g>
<mask id="mask1_7_37" style="mask-type:luminance" maskUnits="userSpaceOnUse" x="256" y="10" width="2828" height="2327">
<path d="M3083.65 10H256V2336.33H3083.65V10Z" fill="white"/>
</mask>
<g mask="url(#mask1_7_37)">
<path d="M1805.25 1759.56C1812.41 1758.62 1821.11 1758.47 1827.53 1762.38C1830.48 1764.17 1833.74 1767.37 1834.57 1770.9C1837.41 1783.17 1835.14 1826.85 1835.18 1841.98L1835.47 1946.61C1835.53 1966.34 1836.23 1986.34 1835.18 2006.05C1834.87 2011.75 1834.79 2017.1 1831.77 2022.11C1827.64 2028.97 1821.17 2031.2 1813.98 2032.95C1811.97 2033.02 1809.97 2033.02 1807.97 2032.93C1801.26 2032.72 1791.77 2026.26 1787.46 2021.13C1784.28 2017.34 1784.29 2011.68 1783.98 2006.92C1783.01 1991.75 1783.58 1976.27 1783.6 1961.07L1783.71 1885.54C1783.76 1849.47 1781.59 1806.98 1784.61 1771.84C1790.91 1766.06 1797.38 1762.56 1805.25 1759.56Z" fill="black"/>
<path d="M2170.4 1762.05C2205.28 1758.92 2241.01 1763.71 2275.97 1764.51C2293.07 1764.89 2310.3 1762.27 2327.33 1763.16C2333.49 1763.48 2346.64 1764.41 2351.69 1768.03C2351.95 1768.22 2352.2 1768.41 2352.46 1768.6C2352.7 1768.8 2352.94 1769.01 2353.18 1769.21C2353.41 1769.42 2353.64 1769.64 2353.87 1769.86C2354.1 1770.08 2354.32 1770.31 2354.53 1770.55C2354.74 1770.78 2354.95 1771.02 2355.16 1771.27C2355.35 1771.52 2355.55 1771.77 2355.73 1772.03C2355.92 1772.28 2356.1 1772.55 2356.27 1772.82C2356.43 1773.09 2356.6 1773.36 2356.76 1773.64C2356.91 1773.91 2357.06 1774.19 2357.2 1774.48C2357.34 1774.76 2357.47 1775.05 2357.6 1775.35C2357.73 1775.64 2357.85 1775.94 2357.96 1776.23C2358.07 1776.54 2358.16 1776.84 2358.25 1777.14C2358.35 1777.44 2358.43 1777.75 2358.51 1778.06C2358.58 1778.37 2358.65 1778.68 2358.7 1779C2358.76 1779.31 2358.82 1779.63 2358.86 1779.94C2358.9 1780.26 2358.93 1780.58 2358.95 1780.89C2359.52 1789.09 2354.78 1798.93 2349.4 1805.01C2340.03 1815.59 2290.64 1812.01 2275.29 1812.72C2269.65 1834.79 2273.46 1855.38 2273.74 1877.58C2273.86 1887.89 2273.05 1898.21 2273.09 1908.53C2273.19 1932.87 2273.98 1957 2272.56 1981.35C2272.33 1989.57 2272.95 1997.82 2272.52 2006.03C2272.11 2014.26 2269.96 2022.51 2263.52 2028.07C2257.95 2032.88 2251.3 2034.62 2244.09 2033.81C2236.66 2032.99 2227.83 2029.53 2223.27 2023.24C2220.84 2019.86 2220.46 2015.88 2220.11 2011.85C2217.91 1986.11 2219.72 1958.81 2219.79 1932.93C2219.85 1906.04 2217.61 1876.78 2221.34 1850.2C2222.61 1849.54 2223.88 1848.88 2225.1 1848.14C2228.57 1846.03 2229.8 1844 2230.7 1840.1C2229.64 1830.8 2216.93 1820.17 2211.31 1812.59C2193.8 1812.21 2164.41 1815.13 2149.55 1805.98C2144.82 1803.07 2141.84 1798.46 2140.71 1793.02C2139.38 1786.63 2139.71 1777.98 2143.56 1772.48C2148.97 1764.77 2161.88 1763.35 2170.4 1762.05Z" fill="black"/>
<path d="M1921.62 1765.77C1947.86 1763.69 1974.51 1767.19 2000.85 1767.15C2028.17 1767.13 2064.79 1762.94 2090.39 1766.31C2095.96 1767.04 2100.35 1769.04 2104.67 1772.68C2109.33 1776.59 2112.61 1782.04 2112.97 1788.26C2113.34 1794.99 2110.54 1801.84 2105.88 1806.57C2091.41 1821.27 2050.39 1816.15 2030.74 1816.32C2023.65 1837.74 2027.1 1874.97 2027.18 1898.03C2027.44 1930.43 2027.43 1962.83 2027.15 1995.23C2027.13 2005.66 2026.85 2016.08 2025.35 2026.41C2023.89 2028.26 2022.42 2030.11 2020.82 2031.83C2016.8 2036.13 2010.13 2038.99 2004.29 2039C1992.26 2039.02 1984.03 2030.42 1976.18 2022.42C1973.99 2004.03 1974.94 1984.81 1974.95 1966.3L1975.1 1879.49C1975.17 1863.39 1976.86 1845.01 1973.73 1829.19C1972.82 1824.67 1970.14 1820.28 1967.94 1816.26C1949.7 1816.46 1927.59 1818.37 1909.85 1814.05C1903.22 1812.44 1898.24 1808.45 1894.7 1802.55C1892.54 1798.97 1891.38 1795.53 1892.34 1791.37L1894.43 1791.68C1893.98 1785.91 1894.56 1779.4 1898.31 1774.78C1903.47 1768.42 1913.98 1766.71 1921.62 1765.77Z" fill="black"/>
<path d="M2600.8 1759.4C2609.32 1758.45 2616.49 1758.91 2623.73 1764.07C2627.95 1767.07 2631.15 1771.47 2631.85 1776.72C2632.37 1780.59 2631.46 1784.83 2629.95 1788.4C2623.42 1803.9 2608.88 1822.16 2599.25 1836.25C2583.1 1859.7 2567.2 1883.33 2551.56 1907.13C2545.24 1916.78 2536.51 1927.76 2532.66 1938.6C2527 1954.54 2532.28 1990.02 2530.38 2008.94C2529.64 2016.23 2528 2023.94 2523.47 2029.84C2519.29 2035.31 2513.33 2037.88 2506.67 2038.66C2499.25 2039.52 2491 2039.02 2485.06 2033.92C2481.23 2030.64 2479.33 2026.04 2478.45 2021.13C2475.33 2003.97 2479.51 1972.55 2477.98 1952.75C2477.61 1948.06 2477.01 1943.47 2475.31 1939.06C2472.73 1932.37 2450.46 1894.67 2445.58 1890.78C2445.13 1890.42 2444.66 1890.08 2444.2 1889.75C2441.6 1872.85 2398.12 1823.94 2389.09 1801.02C2386.27 1793.87 2384.42 1784.61 2387.89 1777.39C2390.72 1771.52 2396.87 1768.09 2402.77 1766.05C2409.54 1763.69 2416.77 1763.32 2423.24 1766.79C2428.64 1769.68 2432.96 1774.29 2436.69 1779.08C2449.49 1795.49 2459.99 1814.63 2471.34 1832.14C2480.16 1845.75 2490.04 1858.48 2498.98 1871.92C2500.25 1873.82 2500.89 1875.43 2501.5 1877.63C2507.25 1873.9 2510.97 1866.61 2516.97 1863.59C2520.08 1862.03 2526.58 1862.83 2528.92 1861.02C2533.67 1857.37 2531.43 1850.75 2534.2 1846.65C2537.6 1841.64 2542.63 1846.32 2544.34 1838.75C2545.73 1832.65 2543.77 1823.26 2546.87 1817.9C2549 1814.25 2555.42 1815.41 2556.91 1812.62C2559.61 1807.56 2557.39 1799.91 2561.37 1795.38C2563.84 1792.56 2568.75 1794.77 2572.39 1790.67C2572.17 1788.16 2571.15 1785.16 2571.27 1782.72C2571.6 1775.48 2579.34 1777.59 2583.29 1774.21C2583.17 1773.3 2582.8 1771.48 2582.98 1770.5C2584.42 1762.96 2595.32 1765.25 2599.64 1760.73C2600.04 1760.3 2600.41 1759.83 2600.8 1759.4Z" fill="black"/>
<path d="M1112.58 1773.07C1122.5 1772.74 1131.58 1773.35 1139.7 1779.99C1143.59 1783.18 1146.8 1787.52 1147.99 1792.5C1151.59 1807.64 1149.5 1827.15 1149.49 1842.77L1149.37 1928.75C1149.37 1946.06 1148.79 1963.59 1150.13 1980.86C1161.22 1984.87 1173.96 1988.91 1185.7 1990C1206.67 1991.95 1257.03 1985.56 1272.45 1996.12C1278.29 2000.11 1281.68 2006.33 1282.63 2013.34C1283.91 2022.68 1281.91 2033.97 1275.81 2041.28C1268.51 2050.01 1258.47 2051.31 1247.96 2052.07L1167.94 2052.44C1150.33 2052.54 1130.93 2054.44 1113.7 2050.62C1103.07 2048.25 1095.35 2044.27 1086.99 2037.35C1081.84 2022.72 1082.4 2004.75 1081.19 1989.32C1077.22 1938.96 1069.36 1828.76 1087.17 1783.01C1095.6 1776.85 1102.42 1774.77 1112.58 1773.07Z" fill="black"/>
<path d="M1561.03 1756.19C1569.21 1755.83 1577.88 1755.34 1584.38 1761.29C1588.16 1764.76 1589.47 1769.47 1590.25 1774.46C1591.74 1784.07 1590.74 1794.59 1590.65 1804.34C1590.46 1823.85 1590.04 1843.4 1590.67 1862.92C1603.52 1859.64 1620.63 1854.58 1632.04 1847.88C1639 1843.8 1654.24 1827.52 1658.06 1820.39C1659.67 1817.35 1659.96 1813.75 1661.91 1810.81C1670.71 1797.53 1683.12 1781.4 1695.31 1771.38C1703.85 1764.35 1716.46 1757.5 1727.75 1759.11C1733.1 1759.88 1735.89 1762.66 1738.94 1767.07C1741.12 1770.22 1744.78 1776.08 1743.85 1780.16C1737.99 1806.3 1665.72 1883.31 1642.93 1898.06C1668.82 1924.22 1695.05 1950.26 1719.78 1977.56C1726.4 1985.38 1733.71 1993.38 1736.7 2003.49C1738.82 2010.67 1738.38 2019.13 1734.64 2025.68C1731.89 2030.49 1727.44 2033.54 1722.11 2034.57C1713.01 2036.35 1703.78 2032.33 1696.51 2026.99C1682.3 2016.55 1671.36 2000.49 1659.46 1987.5C1638.99 1965.17 1616.34 1944.1 1591.61 1926.74C1591.87 1944.96 1593.95 2006.64 1586.37 2020.67C1583.65 2025.7 1579.16 2029.8 1573.57 2031.07C1561.34 2033.84 1552.3 2024.09 1542.93 2018.03C1542.79 2006.11 1543.89 1992.31 1541.34 1980.65C1540.47 1976.63 1538.15 1973.07 1537.4 1969.05C1535.47 1958.79 1541.17 1945.12 1541.34 1934.21C1541.74 1908.78 1541.37 1882.95 1540.47 1857.54C1539.62 1833.72 1537.93 1809.37 1539.39 1785.59C1539.77 1779.32 1540.31 1769.01 1543.83 1763.73C1547.35 1758.44 1555.35 1757.43 1561.03 1756.19Z" fill="black"/>
<path d="M485.46 2019.79C480.382 2014.92 475.657 2006.83 472.266 2000.57C465.583 1988.22 464.716 1974.33 463.398 1960.54C461.658 1942.35 459.476 1800.77 462.521 1791.61C465.062 1783.96 471.801 1777.7 478.841 1774.39C488.717 1769.76 503.454 1768.35 513.681 1772.33C521.058 1775.59 528.027 1778.91 531.114 1787.09C535.842 1799.63 534.071 1816.38 534.074 1829.7C534.081 1852.11 531.273 1951.9 537.124 1965.36C541.354 1975.11 551.174 1982.01 560.353 1986.42C572.236 1992.14 587.259 1990.55 599.244 1985.93C603.079 1984.45 606.666 1982.37 610.229 1980.32C621.938 1949.22 618.182 1862.26 618.279 1825.28C618.303 1816.08 615.948 1804.31 617.78 1795.51C619.326 1788.08 627.035 1778.51 633.742 1775.34C644.154 1770.43 664.834 1769.21 675.414 1773.91C681.145 1776.45 686.197 1781.79 688.496 1787.73C693.939 1801.78 691.92 1941.01 689.889 1963.85C689.036 1973.4 687.485 1984.16 683.379 1992.88C671.037 2019.08 650.689 2038 623.753 2047.28C590.638 2058.69 544.845 2057.95 513.292 2041.69C510.647 2040.36 508.073 2038.9 505.569 2037.3C503.067 2035.7 500.647 2033.99 498.31 2032.16C495.975 2030.31 493.733 2028.36 491.586 2026.3C489.439 2024.23 487.397 2022.06 485.46 2019.79Z" fill="black"/>
<path d="M485.144 2020C480.132 2015.12 475.468 2007.03 472.12 2000.76C465.523 1988.4 464.668 1974.5 463.367 1960.7C461.65 1942.5 459.495 1800.79 462.501 1791.62C465.01 1783.97 471.662 1777.7 478.61 1774.4C488.358 1769.76 502.905 1768.35 513 1772.33C502.164 1772.02 484.176 1770.37 475.417 1777.94C469.732 1782.84 470.653 1792.62 470.481 1799.67C469.9 1823.56 470.817 1847.56 470.581 1871.47C470.261 1903.72 470.128 1935.72 471.834 1967.94C472.333 1977.37 472.304 1987.4 473.673 1996.7C474.079 1999.45 475.5 2003.59 477.402 2005.62C477.615 2005.85 477.907 2005.97 478.16 2006.15C478.814 2005.87 479.729 2004.86 480.275 2004.37L478.926 2002.19L480.754 2003.9L481.846 2003.59C483.64 2007.39 483.24 2009.43 482.993 2013.5C482.848 2015.87 484.134 2017.95 485.144 2020Z" fill="#888685"/>
<path d="M821.627 1773.96C850.274 1771.81 920.094 1772.99 946.079 1780.5C964.364 1785.78 979.311 1798.31 988.446 1815.16C1000.62 1837.6 1004.68 1868.51 997.322 1893.11C989.377 1919.68 973.38 1937.66 949.614 1950.71C955.939 1960.01 962.449 1969.24 969.824 1977.75C976.924 1985.92 985.849 1994.24 991.682 2003.33C994.426 2007.6 996.346 2012.7 996.842 2017.78C997.625 2025.85 994.729 2033.44 989.459 2039.43C989.053 2039.88 988.634 2040.32 988.204 2040.75C987.773 2041.18 987.334 2041.61 986.883 2042.02C986.432 2042.42 985.968 2042.82 985.5 2043.21C985.029 2043.59 984.545 2043.97 984.057 2044.33C983.564 2044.68 983.064 2045.03 982.56 2045.36C982.051 2045.69 981.534 2046.02 981.009 2046.33C980.484 2046.64 979.951 2046.93 979.413 2047.21C978.872 2047.48 978.327 2047.74 977.773 2048C977.219 2048.25 976.661 2048.48 976.095 2048.7C975.529 2048.92 974.959 2049.13 974.385 2049.32C973.81 2049.51 973.228 2049.68 972.646 2049.85C972.059 2050.01 971.472 2050.15 970.882 2050.28C970.287 2050.41 969.692 2050.52 969.093 2050.62C968.499 2050.72 967.896 2050.8 967.297 2050.87C966.694 2050.94 966.091 2050.99 965.484 2051.02C964.881 2051.06 964.274 2051.08 963.671 2051.08C948.933 2051.24 936.669 2043.71 926.427 2033.57C926.361 2033.46 926.324 2033.32 926.234 2033.22C904.483 2008.92 882.038 1975.05 849.765 1965.51C849.585 1983.04 852.448 2025.81 844.355 2039.72C840.483 2046.37 834.084 2050.68 826.64 2052.16C813.657 2054.74 799.675 2051.27 788.998 2043.47C781.418 2037.93 774.953 2029.25 773.567 2019.72C771.582 2006.07 772.381 1991.4 772.308 1977.63L772.172 1904.99L772.16 1842.32C772.16 1830.45 771.528 1818.07 772.775 1806.3C773.411 1800.29 774.781 1795.27 778.452 1790.39C788.575 1776.94 806.401 1776.06 821.627 1773.96Z" fill="black"/>
<path d="M846.018 1843.91C857.792 1843.42 869.571 1843.12 881.358 1843C895.736 1842.95 907.376 1844.61 918.051 1855.43C923.14 1860.6 927.344 1865.25 926.978 1873.06C926.574 1881.67 923.209 1880.22 918.336 1885.13C916.947 1886.53 915.639 1888.1 914.299 1889.56L911.137 1893.92C902.923 1898.24 892.953 1899.89 883.758 1899.99C873.645 1900.12 853.681 1898.54 846.283 1891.12C842.978 1880.77 843.594 1854.31 846.018 1843.91Z" fill="#FEFEFE"/>
<path d="M1362.36 1890.1C1387.89 1889.93 1418.91 1889.9 1441.78 1890.63C1452.3 1890.96 1463.95 1891.56 1466.89 1892.21C1477.02 1894.5 1468.94 1902.63 1469.07 1905.45L1470.11 1924.92C1470.31 1928.59 1472.81 1932.32 1469.07 1935.98C1467.98 1937.04 1467.69 1938.04 1456.93 1938.97C1442.18 1940.25 1419.12 1940.66 1393.46 1940.99C1386.32 1941 1379.18 1941 1372.05 1940.99C1348.13 1940.95 1314.26 1939.75 1298.9 1938.79C1287.57 1938.09 1287.61 1937.03 1286.48 1936.14C1283.03 1933.32 1285.07 1930.44 1285.16 1927.61L1285.52 1913.55C1285.72 1906.84 1277.96 1898.93 1288.73 1892.39C1311.2 1891.31 1334.26 1890.66 1362.36 1890.1Z" fill="black"/>
</g>
</g>
<defs>
<clipPath id="clip0_7_37">
<rect width="2906" height="2346" fill="white"/>
</clipPath>
</defs>
</svg>
