<svg width="6599" height="5327" viewBox="0 0 6599 5327" fill="none" xmlns="http://www.w3.org/2000/svg">
<rect x="0.5" y="0.5" width="6598" height="5326" fill=""/>
<rect x="0.5" y="0.5" width="6598" height="5326" stroke="black"/>
<g clip-path="url(#clip0_4_39)">
<path d="M3441.23 4145.34C3458.99 4143.07 3480.58 4142.71 3496.49 4152.16C3503.81 4156.5 3511.92 4164.24 3513.96 4172.77C3521.01 4202.44 3515.39 4308.07 3515.48 4344.67L3516.2 4597.67C3516.34 4645.38 3518.08 4693.76 3515.48 4741.41C3514.72 4755.2 3514.52 4768.14 3507.03 4780.25C3496.77 4796.84 3480.72 4802.23 3462.87 4806.46C3457.9 4806.64 3452.93 4806.63 3447.97 4806.43C3431.33 4805.9 3407.76 4790.29 3397.07 4777.88C3389.19 4768.73 3389.22 4755.03 3388.43 4743.51C3386.03 4706.84 3387.45 4669.4 3387.51 4632.65L3387.76 4449.99C3387.9 4362.77 3382.5 4260.02 3390 4175.04C3405.63 4161.08 3421.68 4152.61 3441.23 4145.34Z" fill="#B0B7C3"/>
<path d="M4522.41 4148.3C4607.62 4140.72 4694.93 4152.33 4780.33 4154.26C4822.11 4155.18 4864.22 4148.83 4905.83 4150.99C4920.88 4151.77 4953.01 4154.01 4965.34 4162.79C4965.98 4163.24 4966.6 4163.69 4967.22 4164.16C4967.81 4164.64 4968.4 4165.14 4968.98 4165.64C4969.56 4166.14 4970.12 4166.67 4970.68 4167.21C4971.24 4167.75 4971.77 4168.31 4972.28 4168.89C4972.8 4169.44 4973.31 4170.02 4973.82 4170.62C4974.3 4171.22 4974.77 4171.83 4975.21 4172.46C4975.68 4173.08 4976.12 4173.71 4976.53 4174.37C4976.94 4175.02 4977.34 4175.68 4977.73 4176.35C4978.1 4177.02 4978.47 4177.7 4978.82 4178.39C4979.16 4179.08 4979.48 4179.78 4979.8 4180.49C4980.1 4181.2 4980.39 4181.92 4980.67 4182.64C4980.93 4183.37 4981.17 4184.1 4981.39 4184.83C4981.62 4185.57 4981.82 4186.32 4982.01 4187.06C4982.19 4187.81 4982.35 4188.56 4982.48 4189.33C4982.63 4190.09 4982.76 4190.86 4982.88 4191.62C4982.97 4192.39 4983.04 4193.15 4983.1 4193.91C4984.47 4213.77 4972.89 4237.59 4959.75 4252.3C4936.85 4277.92 4816.18 4269.25 4778.68 4270.98C4764.89 4324.4 4774.21 4374.26 4774.88 4428.01C4775.18 4452.95 4773.2 4477.95 4773.31 4502.93C4773.56 4561.85 4775.49 4620.27 4772.02 4679.22C4771.44 4699.13 4772.95 4719.09 4771.91 4738.98C4770.91 4758.89 4765.65 4778.88 4749.93 4792.33C4736.31 4803.97 4720.07 4808.19 4702.45 4806.23C4684.3 4804.25 4662.71 4795.88 4651.58 4780.64C4645.65 4772.45 4644.7 4762.83 4643.86 4753.07C4638.49 4690.74 4642.91 4624.66 4643.08 4561.99C4643.22 4496.91 4637.74 4426.05 4646.86 4361.7C4649.96 4360.11 4653.06 4358.51 4656.06 4356.73C4664.53 4351.61 4667.52 4346.71 4669.73 4337.26C4667.13 4314.75 4636.09 4289.02 4622.36 4270.65C4579.57 4269.75 4507.76 4276.8 4471.46 4254.65C4459.89 4247.61 4452.62 4236.45 4449.85 4223.28C4446.6 4207.81 4447.41 4186.87 4456.81 4173.56C4470.04 4154.88 4501.58 4151.46 4522.41 4148.3Z" fill="#B0B7C3"/>
<path d="M3804.12 4148.64C3868.3 4143.63 3933.49 4152.05 3997.92 4151.97C4064.75 4151.91 4154.32 4141.82 4216.93 4149.93C4230.55 4151.69 4241.29 4156.52 4251.86 4165.28C4263.27 4174.7 4271.29 4187.85 4272.16 4202.83C4273.06 4219.05 4266.23 4235.55 4254.82 4246.96C4219.42 4282.37 4119.09 4270.03 4071.04 4270.45C4053.7 4322.08 4062.12 4411.79 4062.32 4467.35C4062.95 4545.43 4062.93 4623.51 4062.26 4701.59C4062.21 4726.73 4061.53 4751.84 4057.84 4776.73C4054.29 4781.18 4050.68 4785.65 4046.77 4789.79C4036.93 4800.16 4020.62 4807.04 4006.33 4807.07C3976.91 4807.13 3956.78 4786.4 3937.57 4767.11C3932.23 4722.81 3934.55 4676.47 3934.58 4631.87L3934.94 4422.69C3935.11 4383.88 3939.25 4339.58 3931.58 4301.47C3929.37 4290.56 3922.8 4279.99 3917.43 4270.31C3872.8 4270.79 3818.72 4275.38 3775.35 4264.97C3759.13 4261.09 3746.94 4251.49 3738.27 4237.26C3733.01 4228.65 3730.16 4220.34 3732.51 4210.33L3737.62 4211.06C3736.53 4197.16 3737.93 4181.47 3747.1 4170.34C3759.74 4155.01 3785.44 4150.9 3804.12 4148.64Z" fill="#B0B7C3"/>
<path d="M5678.35 4134.6C5699.15 4132.31 5716.66 4133.43 5734.33 4145.9C5744.62 4153.17 5752.43 4163.8 5754.16 4176.49C5755.42 4185.86 5753.21 4196.09 5749.52 4204.74C5733.58 4242.21 5698.09 4286.37 5674.57 4320.43C5635.14 4377.14 5596.34 4434.27 5558.16 4491.82C5542.72 4515.15 5521.41 4541.71 5512.02 4567.92C5498.2 4606.45 5511.09 4692.25 5506.45 4738C5504.66 4755.62 5500.64 4774.27 5489.59 4788.53C5479.38 4801.76 5464.84 4807.97 5448.59 4809.84C5430.47 4811.94 5410.34 4810.73 5395.83 4798.4C5386.49 4790.46 5381.84 4779.33 5379.69 4767.47C5372.08 4725.97 5382.29 4649.99 5378.54 4602.12C5377.65 4590.79 5376.17 4579.69 5372.03 4569.03C5365.74 4552.84 5311.37 4461.68 5299.46 4452.28C5298.37 4451.41 5297.22 4450.6 5296.1 4449.79C5289.73 4408.94 5183.6 4290.67 5161.57 4235.25C5154.69 4217.96 5150.16 4195.56 5158.63 4178.11C5165.54 4163.91 5180.56 4155.63 5194.96 4150.68C5211.48 4144.98 5229.13 4144.08 5244.93 4152.47C5258.1 4159.46 5268.64 4170.62 5277.76 4182.2C5309 4221.88 5334.64 4268.16 5362.35 4310.5C5383.88 4343.41 5407.99 4374.18 5429.8 4406.67C5432.91 4411.28 5434.47 4415.17 5435.95 4420.48C5449.99 4411.48 5459.08 4393.83 5473.73 4386.54C5481.31 4382.76 5497.17 4384.69 5502.9 4380.33C5514.48 4371.49 5509.02 4355.49 5515.79 4345.59C5524.07 4333.46 5536.35 4344.78 5540.54 4326.47C5543.92 4311.73 5539.14 4289.02 5546.72 4276.07C5551.92 4267.24 5567.58 4270.03 5571.22 4263.29C5577.82 4251.05 5572.39 4232.56 5582.1 4221.6C5588.14 4214.78 5600.13 4220.14 5609 4210.22C5608.47 4204.15 5605.98 4196.91 5606.26 4191.01C5607.07 4173.5 5625.97 4178.59 5635.62 4170.42C5635.31 4168.21 5634.42 4163.82 5634.86 4161.45C5638.36 4143.21 5664.98 4148.75 5675.52 4137.82C5676.5 4136.78 5677.4 4135.66 5678.35 4134.6Z" fill="#B0B7C3"/>
<path d="M2070.93 4131.19C2095.15 4130.41 2117.32 4131.86 2137.14 4147.88C2146.65 4155.57 2154.48 4166.03 2157.38 4178.03C2166.18 4214.5 2161.08 4261.53 2161.04 4299.17L2160.76 4506.39C2160.75 4548.12 2159.33 4590.37 2162.6 4631.98C2189.69 4641.66 2220.78 4651.39 2249.44 4654.02C2300.64 4658.72 2423.58 4643.31 2461.22 4668.76C2475.47 4678.38 2483.74 4693.37 2486.08 4710.26C2489.19 4732.77 2484.3 4759.98 2469.41 4777.6C2451.6 4798.65 2427.08 4801.78 2401.43 4803.6L2206.09 4804.5C2163.09 4804.75 2115.74 4809.31 2073.67 4800.11C2047.72 4794.4 2028.88 4784.81 2008.47 4768.12C1995.89 4732.88 1997.26 4689.56 1994.3 4652.37C1984.63 4531 1965.44 4265.42 2008.91 4155.15C2029.48 4140.3 2046.13 4135.3 2070.93 4131.19Z" fill="#B0B7C3"/>
<path d="M2726.27 4137.28C2746.38 4136.42 2767.69 4135.24 2783.67 4149.59C2792.97 4157.95 2796.19 4169.3 2798.09 4181.33C2801.77 4204.51 2799.3 4229.88 2799.07 4253.39C2798.62 4300.46 2797.59 4347.61 2799.13 4394.67C2830.72 4386.76 2872.77 4374.57 2900.82 4358.4C2917.91 4348.56 2955.38 4309.3 2964.75 4292.1C2968.72 4284.77 2969.44 4276.1 2974.23 4269C2995.84 4236.98 3026.35 4198.08 3056.3 4173.92C3077.3 4156.97 3108.29 4140.44 3136.03 4144.33C3149.2 4146.18 3156.05 4152.89 3163.54 4163.52C3168.91 4171.12 3177.89 4185.24 3175.62 4195.09C3161.22 4258.12 2983.59 4443.84 2927.58 4479.43C2991.2 4542.52 3055.68 4605.3 3116.45 4671.16C3132.73 4690.01 3150.68 4709.31 3158.03 4733.69C3163.26 4751 3162.17 4771.39 3152.97 4787.19C3146.21 4798.79 3135.27 4806.15 3122.18 4808.64C3099.81 4812.94 3077.13 4803.24 3059.26 4790.35C3024.34 4765.18 2997.46 4726.45 2968.21 4695.13C2917.88 4641.27 2862.23 4590.45 2801.44 4548.59C2802.09 4592.52 2807.19 4741.27 2788.55 4775.11C2781.88 4787.24 2770.83 4797.14 2757.1 4800.19C2727.05 4806.87 2704.83 4783.36 2681.8 4768.76C2681.46 4740.01 2684.15 4706.73 2677.89 4678.6C2675.74 4668.9 2670.05 4660.31 2668.2 4650.63C2663.46 4625.89 2677.46 4592.92 2677.88 4566.6C2678.87 4505.27 2677.96 4442.97 2675.74 4381.7C2673.66 4324.26 2669.5 4265.53 2673.09 4208.18C2674.04 4193.07 2675.36 4168.19 2684.01 4155.46C2692.67 4142.71 2712.31 4140.28 2726.27 4137.28Z" fill="#B0B7C3"/>
<path d="M534.554 4726.62C522.052 4714.87 510.418 4695.38 502.068 4680.28C485.614 4650.5 483.48 4617.02 480.234 4583.77C475.952 4539.92 470.578 4198.58 478.075 4176.49C484.333 4158.06 500.925 4142.96 518.257 4134.99C542.572 4123.81 578.856 4120.42 604.037 4130.01C622.2 4137.87 639.359 4145.87 646.96 4165.61C658.599 4195.84 654.239 4236.22 654.247 4268.33C654.264 4322.36 647.351 4562.94 661.756 4595.4C672.17 4618.9 696.348 4635.53 718.949 4646.16C748.205 4659.95 785.193 4656.12 814.701 4644.99C824.145 4641.41 832.976 4636.4 841.748 4631.45C870.577 4556.48 861.329 4346.83 861.569 4257.67C861.628 4235.5 855.828 4207.11 860.339 4185.89C864.145 4167.99 883.127 4144.92 899.64 4137.28C925.275 4125.43 976.192 4122.49 1002.24 4133.82C1016.35 4139.94 1028.79 4152.83 1034.45 4167.15C1047.85 4201.02 1042.88 4536.68 1037.88 4591.74C1035.78 4614.78 1031.96 4640.71 1021.85 4661.74C991.464 4724.91 941.366 4770.52 875.046 4792.89C793.513 4820.41 680.766 4818.62 603.078 4779.41C596.566 4776.21 590.229 4772.68 584.065 4768.84C577.904 4764.98 571.947 4760.84 566.193 4756.43C560.442 4751.99 554.923 4747.28 549.636 4742.3C544.35 4737.33 539.323 4732.1 534.554 4726.62Z" fill="#B0B7C3"/>
<path d="M534.554 4726.62C522.052 4714.87 510.418 4695.38 502.068 4680.28C485.614 4650.5 483.48 4617.02 480.234 4583.77C475.952 4539.92 470.578 4198.58 478.075 4176.49C484.333 4158.06 500.925 4142.96 518.257 4134.99C542.572 4123.81 578.856 4120.42 604.037 4130.01C577.007 4129.26 532.141 4125.29 510.293 4143.52C496.112 4155.32 498.408 4178.9 497.98 4195.87C496.531 4253.42 498.819 4311.23 498.229 4368.83C497.432 4446.52 497.099 4523.59 501.355 4601.22C502.6 4623.93 502.527 4648.09 505.941 4670.49C506.954 4677.12 510.5 4687.1 515.242 4691.97C515.774 4692.53 516.503 4692.83 517.135 4693.25C518.766 4692.58 521.048 4690.15 522.41 4688.98L519.045 4683.72L523.604 4687.83L526.327 4687.1C530.804 4696.25 529.806 4701.17 529.188 4710.96C528.827 4716.66 532.035 4721.69 534.554 4726.62Z" fill="#888685"/>
<path d="M1358.33 4134.71C1428.17 4129.54 1598.39 4132.39 1661.74 4150.46C1706.32 4163.18 1742.76 4193.35 1765.03 4233.9C1794.72 4287.93 1804.62 4362.35 1786.67 4421.58C1767.3 4485.53 1728.3 4528.82 1670.36 4560.23C1685.78 4582.62 1701.65 4604.86 1719.63 4625.33C1736.94 4645.01 1758.7 4665.04 1772.92 4686.91C1779.61 4697.2 1784.29 4709.47 1785.5 4721.72C1787.41 4741.13 1780.35 4759.42 1767.5 4773.82C1766.51 4774.92 1765.49 4775.98 1764.44 4777.01C1763.39 4778.05 1762.32 4779.07 1761.22 4780.06C1760.12 4781.04 1758.99 4782 1757.85 4782.94C1756.7 4783.85 1755.52 4784.75 1754.33 4785.62C1753.13 4786.48 1751.91 4787.31 1750.68 4788.11C1749.44 4788.91 1748.18 4789.69 1746.9 4790.43C1745.62 4791.18 1744.32 4791.89 1743.01 4792.56C1741.69 4793.21 1740.36 4793.84 1739.01 4794.46C1737.66 4795.06 1736.3 4795.61 1734.92 4796.14C1733.54 4796.68 1732.15 4797.18 1730.75 4797.65C1729.35 4798.09 1727.93 4798.51 1726.51 4798.91C1725.08 4799.3 1723.65 4799.64 1722.21 4799.94C1720.76 4800.26 1719.31 4800.54 1717.85 4800.78C1716.4 4801 1714.93 4801.2 1713.47 4801.37C1712 4801.53 1710.53 4801.66 1709.05 4801.73C1707.58 4801.82 1706.1 4801.87 1704.63 4801.87C1668.7 4802.26 1638.8 4784.14 1613.83 4759.73C1613.67 4759.45 1613.58 4759.11 1613.36 4758.89C1560.33 4700.38 1505.61 4618.84 1426.93 4595.88C1426.49 4638.08 1433.47 4741.05 1413.74 4774.52C1404.3 4790.54 1388.7 4800.92 1370.55 4804.47C1338.9 4810.68 1304.81 4802.34 1278.78 4783.55C1260.3 4770.21 1244.54 4749.32 1241.16 4726.39C1236.32 4693.51 1238.27 4658.21 1238.09 4625.05L1237.76 4450.16L1237.73 4299.29C1237.73 4270.73 1236.19 4240.92 1239.23 4212.57C1240.78 4198.11 1244.12 4186.03 1253.07 4174.28C1277.75 4141.9 1321.21 4139.77 1358.33 4134.71Z" fill="#B0B7C3"/>
<path d="M1419.28 4302.17C1448.18 4300.99 1477.09 4300.25 1506.02 4299.96C1541.31 4299.84 1569.88 4303.87 1596.08 4330.24C1608.57 4342.83 1618.89 4354.15 1617.99 4373.17C1617 4394.14 1608.74 4390.62 1596.78 4402.56C1593.37 4405.97 1590.16 4409.8 1586.87 4413.35L1579.11 4423.98C1558.95 4434.49 1534.48 4438.52 1511.91 4438.77C1487.09 4439.08 1438.09 4435.22 1419.93 4417.16C1411.82 4391.96 1413.33 4327.5 1419.28 4302.17Z" fill="#141D2F"/>
<path d="M2797.38 842.605C2929.03 834.951 3058.9 805.781 3191 802.353C3247.52 800.888 3305.6 799.828 3362.06 803.102C3433.51 807.25 3505.04 816.355 3576.41 822.499C3616.2 825.924 3660.58 838.66 3700.1 836.534C3722.77 835.315 3756.16 822.222 3775.46 810.84L3776.91 807.935L3766.87 805.734C3770.15 796.01 3798.67 779.419 3808.51 772.271C3886.81 715.413 3955.75 666.276 4043.16 622.589C4082.4 602.972 4150.52 573.981 4195.06 587.558C4228.31 597.698 4247.8 637.553 4261.98 666.335C4341.99 828.671 4376.83 1045.54 4373.78 1225.71C4372.75 1286.41 4366.18 1346.86 4358.32 1407.01C4384.97 1465.44 4413.13 1523.77 4434.83 1584.27C4450.38 1627.61 4461.84 1673.4 4473.87 1717.87C4498.25 1715.47 4527.73 1718.78 4550.94 1712.74C4603.34 1699.1 4649.12 1669.71 4700.63 1653.95C4765.31 1634.17 4992.16 1601.91 5044.03 1651.29C5047 1654.11 5046.86 1654.25 5048.65 1657.24C5047.28 1663.14 5047.22 1664.04 5041.6 1667.25C5014.84 1682.58 4930.05 1682.52 4896.55 1685.39C4780.5 1695.36 4571.6 1726.85 4479.6 1801.95C4478.09 1826.26 4477.25 1850.13 4479.94 1874.43C4541.29 1870.94 4601.02 1861.88 4662.01 1856.76C4766.15 1848.01 4872.44 1852.59 4974.29 1876.26C5008.74 1884.26 5054.46 1896.52 5081.59 1920.47C5087.74 1925.89 5091.41 1930.51 5093.11 1938.53C5091.49 1943.82 5091.63 1945.39 5086.23 1947.94C5079.18 1951.28 5069.59 1950.48 5062.04 1949.72C5035.59 1947.06 5009.19 1940.12 4982.99 1935.54C4929.18 1926.13 4874.68 1918.23 4820.21 1914.23C4708.1 1905.98 4582.17 1908.17 4474.48 1944.18C4460 2023.42 4418.97 2142.44 4376.08 2211.03C4473.73 2229.55 4587.66 2289.31 4643.61 2372.25C4701.69 2458.35 4716.54 2559.84 4696.02 2660.92C4674.88 2765.15 4607.01 2849.03 4519.31 2906.05C4463.52 2942.32 4398.73 2961.7 4332.26 2955.83C4327.11 3024.31 4325.97 3094.67 4328.73 3163.33C4381.73 3189.44 4447.89 3211.84 4496.52 3242.38C4544.87 3272.72 4589.19 3335.25 4607.17 3388.89C4634.83 3471.33 4634.38 3553.77 4594.37 3632.02C4564.28 3690.88 4512.88 3741.47 4448.87 3761.41C4358.8 3789.46 4157.56 3768.54 4052.7 3775.08C4022.75 3776.96 3995.34 3787.84 3966.57 3795.3C3930.55 3804.67 3890.95 3808.53 3853.79 3807.27C3818.55 3806.1 3779.6 3799.05 3745.45 3789.85C3723.75 3783.98 3701.77 3775.87 3679.43 3772.79C3643.64 3767.87 3602.33 3773.01 3565.89 3773.43C3501.13 3774.25 3436.14 3772.79 3371.4 3774.5C3334.38 3775.48 3301.3 3802.1 3267.04 3814.37C3209.43 3835.04 3142.15 3844.33 3081.24 3843.71C3020.98 3843.09 2952.41 3832.89 2895.47 3812.95C2860.58 3800.73 2822.84 3776.06 2785.97 3773.63C2742.91 3770.78 2698.29 3773.15 2655.1 3773.27C2571.24 3773.38 2487.38 3773.92 2403.51 3774.89C2350.29 3775.48 2294.73 3778.33 2241.88 3771.76C2210.01 3767.81 2177.57 3759.4 2149.14 3744.16C2079.44 3706.85 2039.71 3639.99 2018.1 3565.85C1995.44 3488.11 2017.56 3416.38 2055.82 3347C2118.42 3233.46 2162.93 3249.79 2258.89 3189.7C2273.11 3156.08 2282.28 3112.04 2287.69 3076.02C2292.21 3045.99 2293.65 2927.78 2309.55 2911.36C2311.7 2907.75 2313.75 2904.06 2315.97 2900.51C2339.79 2862.51 2309.91 2656.06 2343.57 2622.97C2363.75 2603.15 2355.64 2588.73 2358.66 2563.69C2359.61 2555.89 2362.2 2552.98 2367.84 2547.9C2371.51 2547.3 2376.61 2546.94 2379.95 2545.42C2393.22 2539.37 2389.29 2517.31 2390.95 2505.55C2393.41 2488.21 2410.18 2486.02 2416.07 2472.31C2422.04 2458.4 2423.51 2441.21 2429.51 2426.37C2411.21 2415.81 2393.14 2398.2 2376.52 2384.84C2287.62 2313.36 2202.13 2231.7 2145.93 2130.99C2118.37 2081.59 2101.26 2026.55 2071.89 1978.43C1974.09 1975.28 1811.84 2008.42 1715.33 2032.04C1665.21 2044.3 1613.99 2060.17 1562.94 2067.59C1551.37 2069.27 1541.35 2070.98 1531.53 2063.73L1531.17 2057.65C1587.4 1996.6 1707.52 1974.43 1785.78 1955.11C1830.38 1945.38 1877.9 1936.42 1923.37 1932.41C1960.57 1929.13 2001.66 1931.56 2037.77 1922.25C2048.83 1919.4 2058.3 1913.68 2067.99 1907.85C2068.93 1886.36 2074.82 1847.25 2060.2 1830.39C2036.3 1802.82 1786.77 1778.64 1735.37 1775.73C1682.58 1772.74 1628.07 1775.55 1575.67 1769.84C1565.22 1768.71 1560.46 1766.8 1553.95 1758.56L1555.53 1751.71C1602.53 1699.22 1845.25 1721.2 1911.89 1732.52C1948.62 1738.77 2023.67 1766.06 2056.61 1759.88C2065.56 1758.2 2068.35 1752.79 2072.78 1745.62C2081.19 1731.98 2081.68 1730.06 2096.7 1724.28C2109.05 1706.45 2101.2 1665.85 2102.26 1643.99C2102.82 1632.43 2103.24 1615.68 2112.25 1607.64C2157.96 1595.65 2120.25 1549.22 2143.21 1518.06C2151.22 1513.66 2152.28 1514.35 2160.98 1515.4C2164.62 1489.52 2171.52 1463.52 2172.12 1437.23C2172.74 1410.63 2168.17 1383.31 2167.19 1356.64C2165.31 1305 2167.18 1253.05 2167.34 1201.37C2167.54 1138.61 2160.59 1066.76 2177.36 1005.9L2184.03 990.095C2197.62 957.972 2197.24 922.213 2203.13 888.3C2207.42 863.613 2217.28 840.094 2223.89 815.958C2229.35 796.033 2230.79 774.718 2239.15 755.758C2241.43 751.848 2243.57 747.858 2245.85 743.957C2256.01 726.621 2258.77 707.477 2264.71 688.536C2274.1 658.566 2293.13 628.641 2321.99 614.222C2346.88 601.784 2373.24 605.027 2398.77 612.874C2434.49 618.918 2469.41 638.001 2501.22 654.718C2552.83 681.85 2604.33 710.256 2652.25 743.579C2700.64 777.224 2744.94 815.013 2797.38 842.605Z" fill="black"/>
<path d="M4322.36 3317.13C4324.74 3317.83 4325.46 3317.97 4327.98 3319.17C4383.32 3345.8 4438.3 3387.27 4460.78 3445.94C4473.98 3480.31 4473.09 3511.54 4457.85 3545.02C4442.83 3577.93 4430.61 3589.17 4396.6 3602.12C4341.71 3620.44 4300.71 3595.02 4246.29 3595.33C4301.58 3511.66 4318.83 3415.65 4322.36 3317.13Z" fill="#B0B7C3"/>
<path d="M2461.37 3033.85C2492.8 3054.18 2529.73 3066.06 2559.88 3087.49C2567.22 3105.52 2583.8 3139.86 2570.64 3157.45C2565.25 3164.67 2558.97 3170.15 2556.5 3179.15C2548.7 3207.65 2551.8 3244.12 2551.59 3273.7C2551.3 3312.74 2549.42 3353.23 2553.76 3392.08C2561.8 3463.89 2598.1 3534.47 2631.51 3597.31C2535.65 3612.27 2456.64 3605.17 2361.3 3606.15C2318.38 3606.54 2255.81 3610.34 2217.26 3589.45C2195.84 3577.82 2181.48 3550.86 2175.47 3527.93C2165.75 3490.77 2173.09 3448.54 2192.69 3415.74C2226.55 3359.11 2289.08 3338.94 2351.74 3334.97C2372.57 3333.69 2398.77 3334.97 2418.51 3327.65C2426.13 3324.82 2428.44 3311.85 2429.94 3304.49C2447.12 3220.15 2436.18 3117.21 2461.37 3033.85Z" fill="#B0B7C3"/>
<path d="M4292.16 2347.22C4358.21 2340.6 4425.8 2363.72 4478.48 2403.31C4530.92 2442.73 4550.55 2497.78 4559.36 2560.81C4565.06 2601.91 4554.63 2627.38 4546.97 2666.72C4544.81 2677.63 4544.37 2695.73 4538.05 2704.15C4534.38 2704.55 4529.13 2704.65 4525.77 2706.08C4518.95 2708.97 4518.61 2712.11 4516.15 2718.49C4517.8 2725.59 4519.65 2730.98 4516.85 2738.08C4491.93 2762.87 4422.36 2784.1 4387.29 2793.32C4329.49 2801.01 4267.63 2784.85 4218.95 2752.91C4162.6 2715.95 4121.13 2658.36 4107.79 2591.96C4096.94 2537.83 4109.02 2483.77 4140 2438.23C4175.91 2385.52 4230.94 2358.68 4292.16 2347.22Z" fill="#B0B7C3"/>
<path d="M2696.87 2470.34C2763.13 2466.94 2832.32 2489.89 2885.39 2529.11C2929.4 2561.65 2966.62 2603.3 2974.25 2659.13C2984.35 2733.1 2977.36 2841.14 2928.45 2901.6C2893.4 2944.92 2806.07 2958.62 2754.84 2962.68C2684.5 2966.87 2616.11 2946.88 2561.17 2902.19C2509.23 2859.96 2477.52 2790.62 2471.63 2724.7C2465.75 2658.95 2480.05 2598.75 2522.94 2547.76C2570.17 2491.63 2626.68 2476.15 2696.87 2470.34Z" fill="#B0B7C3"/>
<path d="M3613.24 2467.64C3718.58 2467.8 3906.95 2506.96 3961.14 2607.25C3989.41 2659.54 4000.24 2719.64 4033.37 2769.62C4065.78 2818.49 4116.23 2857.73 4159.72 2896.46C4162.88 2948.78 4161.95 3001.47 4162.26 3053.9C4163.32 3137.2 4163.1 3220.5 4161.59 3303.79C4160.95 3338.78 4165.37 3380.25 4160.14 3414.42C4156.42 3438.75 4138.44 3450.86 4132.28 3471.78C4128.59 3484.22 4132.17 3503.01 4127.56 3514.09C4124.65 3521.08 4107.09 3527.54 4100.26 3531.04C4099.2 3537.05 4098.2 3543.28 4096.38 3549.1C4087.68 3576.81 4017.1 3621.05 3990.56 3632.55C3930.44 3658.58 3832.65 3658.44 3772.21 3631.85C3727.81 3612.3 3696.38 3581.88 3678.9 3536.24C3674.73 3525.33 3671.29 3511.71 3675.85 3500.36C3689.38 3466.49 3730.38 3427.9 3755.72 3401.17C3831.19 3321.61 3924.84 3237.01 3969.73 3135.05C4006.78 3050.96 4003.37 2938.49 3970.03 2853.81C3935.58 2766.26 3865.56 2691.36 3778.65 2654.28C3693.91 2618.13 3600.46 2611.26 3514.5 2645.92C3461.89 2667.13 3416.96 2697.86 3377.41 2738.34C3364.24 2751.84 3352.58 2768.23 3338.46 2780.6C3323.75 2793.48 3299.73 2802.19 3291.96 2820.9C3290.08 2825.45 3287.9 2829.82 3285.78 2834.26C3282.45 2835.47 3279.2 2836.72 3275.9 2838.01C3259.07 2844.61 3230.41 2898.39 3215.36 2913.99C3207.92 2915.59 3202.97 2916.42 3197.3 2921.96C3195.87 2928.39 3194.7 2935.08 3191.14 2940.73C3175.62 2965.56 3048.19 3076.52 3020.48 3099.29C2973.95 3137.49 2908.72 3176.08 2881.01 3231.22C2861.73 3269.59 2865.57 3341.85 2878.9 3381.56C2896.46 3433.91 2949.7 3487.49 2998.75 3511.35C3055.07 3538.75 3115.81 3538.45 3174.28 3517.67C3206.24 3506.29 3237.48 3480.89 3263.07 3459.08C3343.33 3390.65 3415.59 3310.45 3489.55 3235.31C3544.19 3179.83 3603.76 3126.24 3654.68 3067.49C3666.99 3053.31 3677.89 3039.58 3685.81 3022.49C3686.22 3021.54 3686.64 3020.57 3687.09 3019.61C3692.15 3003.81 3694.84 2987.23 3690.17 2970.93C3685.44 2954.34 3675.63 2939.19 3659.97 2931.11C3642.96 2922.35 3624.2 2923.25 3606.58 2929.71C3579.18 2939.75 3528.25 2985.61 3516.34 3011.56C3518.49 3015.45 3520.54 3019.36 3522.47 3023.36C3521.63 3025.49 3520.37 3029.01 3518.94 3030.77C3512.76 3038.32 3502.16 3036.11 3493.55 3038.27C3487.45 3039.8 3485.13 3043.27 3481.86 3048.22C3484.18 3052.03 3485.78 3055.3 3487.12 3059.55C3486.22 3061.51 3484.91 3064.69 3483.51 3066.26C3477.95 3072.44 3472.02 3070.51 3464.66 3070.15C3458.04 3072.86 3455.74 3075.29 3451.3 3080.63L3453.23 3088.91L3448.53 3093.39C3439.02 3095.57 3431.64 3096.69 3424.37 3103.54C3422.27 3111.59 3421.07 3117.49 3415.19 3123.62C3403.11 3127.42 3396.71 3129.54 3389.86 3140.67C3390.47 3142.52 3391.65 3145.9 3392.07 3147.67C3393.38 3153.12 3393.13 3154.04 3388.32 3157.31C3380.57 3162.6 3370 3162.57 3362.26 3167.83C3353.76 3173.59 3359.41 3179.27 3355.16 3185.87C3349.48 3194.67 3319 3212.94 3308.48 3221.35C3277.67 3246.05 3241.12 3280.02 3220.53 3313.89L3223.25 3320.52L3219.61 3325.72C3217.95 3325.94 3216.29 3326.19 3214.63 3326.47C3204.76 3328.12 3201.32 3330.3 3195.48 3338.58C3197.27 3344.62 3198.53 3347.67 3196.57 3353.91C3179.4 3372.22 3139.21 3387.55 3115.47 3395.35C3087.68 3388.78 3056.27 3378.43 3036.72 3356.45C3024.56 3342.8 3019.55 3326.28 3020.45 3308.18C3020.51 3306.95 3020.62 3305.75 3020.7 3304.52C3021.06 3298.96 3022.3 3295.8 3025.15 3290.93C3049.92 3248.84 3097.1 3210.28 3132.11 3176.19L3263.52 3048.11C3342.01 2971.18 3417.8 2885.22 3503.95 2817.12C3529.04 2797.32 3557.03 2779.01 3588.41 2771.21C3591.46 2770.47 3594.55 2769.8 3597.66 2769.2C3600.76 2768.61 3603.87 2768.09 3607 2767.65C3610.12 2767.21 3613.25 2766.85 3616.4 2766.57C3619.55 2766.28 3622.7 2766.08 3625.85 2765.96C3629 2765.83 3632.15 2765.78 3635.3 2765.81C3638.47 2765.85 3641.63 2765.96 3644.78 2766.15C3647.93 2766.34 3651.07 2766.6 3654.21 2766.95C3657.34 2767.3 3660.46 2767.72 3663.57 2768.22C3666.71 2768.73 3669.81 2769.3 3672.89 2769.96C3675.98 2770.62 3679.05 2771.35 3682.09 2772.16C3685.14 2772.97 3688.17 2773.86 3691.17 2774.82C3694.19 2775.78 3697.18 2776.82 3700.12 2777.93C3703.09 2779.03 3706.01 2780.22 3708.9 2781.47C3711.79 2782.73 3714.66 2784.06 3717.49 2785.46C3720.32 2786.85 3723.12 2788.32 3725.88 2789.86C3728.62 2791.4 3731.33 2793.01 3734.02 2794.68C3778.62 2822.63 3822.58 2874.56 3834.52 2926.69C3844.42 2969.95 3837.46 3010.11 3835.19 3053.17C3834.6 3064.27 3839.64 3086.53 3834.38 3094.81C3831.42 3090.84 3831.81 3090.06 3826.86 3088.52C3815.25 3108.24 3802.61 3127.42 3787.93 3145.01C3762.65 3175.32 3732.73 3202.67 3705.35 3231.11C3644.22 3294.56 3583.2 3357.51 3520.37 3419.32C3461.73 3477.04 3406.78 3538.08 3342.52 3589.93C3339.89 3592.02 3337.24 3594.07 3334.57 3596.08C3331.91 3598.1 3329.21 3600.08 3326.49 3602.04C3323.77 3603.98 3321.02 3605.9 3318.24 3607.8C3315.48 3609.68 3312.7 3611.53 3309.88 3613.34C3307.07 3615.16 3304.23 3616.94 3301.38 3618.68C3298.53 3620.43 3295.65 3622.14 3292.74 3623.82C3289.85 3625.5 3286.93 3627.14 3283.99 3628.74C3281.06 3630.37 3278.1 3631.94 3275.12 3633.47C3272.14 3635.02 3269.15 3636.52 3266.14 3637.97C3263.12 3639.43 3260.09 3640.85 3257.06 3642.25C3254 3643.65 3250.93 3645 3247.86 3646.31C3244.78 3647.63 3241.68 3648.91 3238.57 3650.14C3235.46 3651.39 3232.34 3652.59 3229.2 3653.75C3226.05 3654.92 3222.89 3656.05 3219.72 3657.13C3216.57 3658.21 3213.39 3659.25 3210.19 3660.26C3207 3661.29 3203.8 3662.26 3200.6 3663.2C3197.37 3664.13 3194.14 3665.01 3190.89 3665.85C3187.67 3666.71 3184.42 3667.53 3181.16 3668.31C3177.9 3669.08 3174.63 3669.82 3171.35 3670.52C3168.08 3671.21 3164.8 3671.87 3161.5 3672.48C3158.22 3673.1 3154.92 3673.67 3151.6 3674.22C3148.3 3674.76 3144.99 3675.25 3141.68 3675.7C3138.36 3676.16 3135.04 3676.58 3131.72 3676.96C3128.38 3677.33 3125.05 3677.66 3121.71 3677.96C3118.37 3678.24 3115.03 3678.49 3111.7 3678.72C3108.36 3678.92 3105.01 3679.09 3101.66 3679.22C3098.32 3679.35 3094.97 3679.44 3091.62 3679.5C3088.28 3679.56 3084.94 3679.57 3081.58 3679.53C3078.22 3679.49 3074.88 3679.42 3071.54 3679.3C3068.18 3679.19 3064.84 3679.04 3061.5 3678.86C3058.16 3678.67 3054.83 3678.44 3051.49 3678.16C3048.15 3677.88 3044.82 3677.56 3041.48 3677.21C2953.64 3667.39 2853.65 3623.52 2797.68 3553.1C2777.35 3527.54 2762.43 3499.41 2748.19 3470.18C2706.94 3385.59 2693.27 3313.3 2710.29 3219.06C2716.85 3182.71 2732.25 3147.33 2736.01 3110.72L2736.32 3107.45C2808.87 3104.32 2879.66 3088.24 2941.25 3048.22C3037.31 2985.81 3081.61 2903.34 3104.9 2794.35C3151.69 2745.24 3201.1 2698.25 3250.29 2651.52C3372.21 2535.71 3438.49 2482.28 3613.24 2467.64Z" fill="#B0B7C3"/>
<path d="M3761.39 1036.97C3798.89 1014.35 3826.8 982.6 3859.07 953.506C3934.24 885.736 4014.69 831.705 4109.75 796.052C4122.97 821.039 4136.76 844.373 4156.33 864.944C4158.96 891.81 4161.56 918.773 4167.3 945.189C4173.31 972.866 4182.03 999.894 4186.59 1027.89C4193.67 1071.51 4193.33 1118.16 4194 1162.31C4194.7 1207.04 4193.02 1251.61 4192.04 1296.32C4191.62 1314.99 4193.11 1333.88 4192.07 1352.5C4190.39 1381.86 4173.06 1405.66 4177.39 1436.6C4184.33 1486.2 4217.91 1533.24 4239.61 1577.73C4265.48 1630.8 4291.04 1722.75 4293.02 1781.61C4292.35 1782.35 4291.68 1783.1 4290.98 1783.83C4269.62 1806.5 4165.14 1852.08 4160.11 1869.2C4164.28 1874.69 4166.54 1876.53 4173.56 1877.57C4208.52 1882.76 4254.8 1863.35 4287.82 1852.25C4287.57 1853.84 4287.29 1855.42 4287.04 1857.01C4279.74 1904.94 4293.58 1949.44 4284.52 2001.96C4281.73 2018.35 4267.8 2035.01 4261.84 2051.11C4212.18 2185.68 4192.46 2205.82 4082.45 2296.84C4057.34 2317.63 4034.19 2341.87 4007 2360C3995.96 2367.37 3983.85 2372.91 3972.44 2379.69C3852.92 2336.51 3772.94 2309.44 3643.08 2308.97C3591.23 2308.78 3543.36 2311.96 3492.63 2323.24C3456.95 2331.18 3422.19 2339.39 3388.91 2355C3364.94 2366.23 3338.94 2379.37 3319.61 2397.79L3318.55 2401.11C3322.33 2401.56 3324.84 2400.91 3327.58 2403.7C3295.31 2434.18 3238.43 2464.38 3192.88 2462.6C3174.87 2461.89 3157.06 2457.8 3139.16 2455.92C3089.72 2450.72 3039.24 2451.54 2993.52 2428.77C2941.14 2402.69 2905.81 2374.14 2847.12 2357.19C2799.38 2343.4 2749.97 2345.64 2700.82 2345.9C2670.65 2346.06 2640.68 2347.26 2611.19 2339.71C2534 2319.96 2434.3 2235.36 2381.04 2176.8C2332.4 2123.32 2279.27 2037.43 2265.41 1966.31C2259.43 1935.61 2261.26 1901.7 2258.75 1870.44C2289.83 1881.85 2319.3 1891.47 2352.31 1895.91C2364.63 1895.41 2380.51 1896.55 2390.72 1888.89C2387.72 1866.55 2296.93 1854.14 2284.57 1824.36C2288.72 1822.98 2291.9 1822.11 2295.21 1819.1C2295.87 1818.49 2296.44 1817.8 2297.06 1817.15C2282.37 1807.98 2269.2 1798.66 2256.35 1787.03C2266.12 1731.59 2277.82 1674.69 2297.4 1621.77C2315.39 1573.17 2352.47 1517.12 2358.21 1466.6C2363.89 1416.66 2342.44 1359.96 2335.5 1310.11C2314.39 1158.26 2336.83 955.458 2396.47 813.838C2485.12 848.431 2562.13 898.367 2634.71 959.588C2666.89 986.728 2697.18 1017.2 2732.46 1040.32C2763.66 1038.5 2791.56 1031.62 2821.33 1022.35C2833.18 1048.26 2865.98 1104.31 2873.06 1125.72C2879.7 1145.78 2872.01 1170.14 2880.6 1190.23C2886.79 1204.71 2903.04 1202.82 2906.64 1219.35C2911.09 1239.85 2903.8 1260.62 2909.37 1281.43C2909.7 1282.66 2909.98 1283.91 2910.32 1285.13C2915.29 1302.83 2927.25 1317.08 2933.93 1334.01C2946.51 1366.01 2956.3 1427.74 2988.79 1446.12C2994.86 1446.79 2997.91 1446.65 3002.58 1442.18C3044.72 1401.86 3057.08 1170.99 3060.75 1108.75C3062.7 1075.8 3060.33 1032.84 3069.36 1001.53C3072.16 991.778 3076.77 986.717 3086 982.939C3095 982.575 3100.93 983.828 3107.78 990.061C3119.11 1000.36 3122.52 1016.37 3130.6 1029.04C3139.52 1043.03 3155.83 1056.77 3161.95 1071.83C3165.28 1080.07 3166.37 1089.76 3166.42 1098.58C3166.56 1131.67 3162.65 1164.87 3176.58 1196.06C3183.4 1211.35 3193.07 1225.71 3196.26 1242.37C3200.93 1266.8 3194.7 1291.13 3196.4 1315.6C3198.72 1348.8 3224.62 1465.03 3247.88 1485.51C3253.28 1490.26 3256.58 1490.4 3263.52 1490.32C3283.37 1479.71 3291.48 1452.7 3297.63 1432.33C3313.32 1380.38 3322.6 1326.98 3331.25 1273.51C3337.34 1235.71 3359.57 992.612 3384.55 979.96C3390.78 976.814 3399.09 978.008 3405.85 978.271C3428.31 991.387 3424.53 1027.82 3437.71 1047.56C3442.46 1054.68 3447.8 1046.13 3451.02 1057.42C3463.88 1102.2 3453.84 1160.34 3453.7 1206.83C3453.51 1274.98 3465.2 1317.49 3483.74 1382.2C3487.54 1395.54 3489.05 1409.27 3493.69 1422.39C3503 1428.56 3511.25 1434.99 3522.44 1437.07C3534.66 1433.58 3540.45 1423.94 3546.49 1413.24C3597.86 1322.12 3617.24 1195.01 3644.7 1093.95C3652.16 1066.49 3662.57 1039.45 3672.05 1012.62C3703.45 1028.71 3725.04 1038.52 3761.39 1036.97Z" fill="#B0B7C3"/>
<path d="M2297.06 1817.15C2321.03 1829.34 2408.49 1864.5 2413.04 1890.53C2413.73 1894.52 2411.52 1895.41 2409.17 1898C2392.68 1902.46 2368.74 1900.37 2352.31 1895.91C2364.63 1895.41 2380.51 1896.55 2390.72 1888.89C2387.72 1866.55 2296.93 1854.14 2284.57 1824.36C2288.72 1822.98 2291.9 1822.11 2295.21 1819.1C2295.87 1818.49 2296.44 1817.8 2297.06 1817.15Z" fill="#2A2827"/>
<path d="M3241.26 1893.99C3267.6 1891.19 3301.85 1888.34 3326.91 1897.55C3342.91 1903.43 3358.04 1915.52 3364.89 1931.43C3385.61 1979.63 3340.47 2001.9 3331.02 2029.72C3328.37 2037.62 3331.19 2044.4 3334.8 2051.41C3377.3 2133.73 3449.51 2075.88 3511.87 2096.63C3514.24 2100.46 3515.36 2103.53 3515.59 2108.02C3516.43 2126.7 3500.99 2144.73 3489.33 2158.03C3469.31 2180.88 3436.03 2207.4 3403.81 2207.44C3361.61 2207.49 3316.28 2193.02 3285.86 2163.54C3281.44 2160.44 3280.77 2160.39 3275.34 2160.16C3273.64 2162.07 3271.91 2163.96 3270.23 2165.92C3258.29 2180.07 3246.71 2189.75 3229.96 2197.68C3195.14 2214.14 3155.8 2217.78 3119.5 2204.15C3087.98 2192.32 3046.32 2165.37 3032.87 2133.34C3027.64 2120.87 3027.78 2107.62 3033.26 2095.25C3052.97 2050.69 3140.53 2101.66 3185.27 2083.46C3200.6 2077.23 3214.24 2063.84 3220.31 2048.33C3228.87 2026.39 3211.22 2004.38 3202.27 1985.52C3194.33 1968.77 3186.78 1944.4 3194.19 1926.42C3202.3 1906.73 3223.14 1901.02 3241.26 1893.99Z" fill="black"/>
<path d="M2721.89 1740.55C2765.73 1722.57 2826.06 1718.67 2870.49 1737.27C2910.65 1754.09 2940 1789.26 2955.77 1829.15C2957.25 1832.9 2958.45 1836.48 2959.35 1840.4C2971.23 1889.58 2974.78 1945.65 2960.13 1994.68C2959.24 1997.74 2958.27 2000.77 2957.22 2003.78C2956.18 2006.78 2955.05 2009.76 2953.84 2012.72C2952.65 2015.67 2951.38 2018.59 2950.04 2021.47C2948.69 2024.36 2947.28 2027.21 2945.79 2030.03C2944.31 2032.85 2942.76 2035.62 2941.12 2038.36C2939.49 2041.1 2937.81 2043.8 2936.05 2046.45C2934.28 2049.1 2932.46 2051.71 2930.57 2054.27C2928.67 2056.84 2926.72 2059.35 2924.71 2061.82C2922.69 2064.28 2920.61 2066.69 2918.48 2069.05C2916.34 2071.41 2914.14 2073.72 2911.89 2075.97C2909.63 2078.22 2907.32 2080.41 2904.96 2082.55C2902.6 2084.68 2900.18 2086.76 2897.71 2088.77C2895.25 2090.78 2892.73 2092.73 2890.17 2094.62C2887.6 2096.51 2884.99 2098.33 2882.33 2100.09C2879.68 2101.84 2876.98 2103.53 2874.24 2105.15C2871.5 2106.77 2868.72 2108.32 2865.9 2109.81C2863.57 2111.06 2861.21 2112.25 2858.82 2113.38C2856.43 2114.52 2854.02 2115.59 2851.58 2116.6C2849.13 2117.61 2846.67 2118.56 2844.18 2119.45C2841.69 2120.34 2839.18 2121.16 2836.65 2121.92C2834.11 2122.69 2831.56 2123.38 2829 2124.02C2826.43 2124.65 2823.85 2125.22 2821.26 2125.72C2818.66 2126.23 2816.06 2126.67 2813.44 2127.04C2810.82 2127.41 2808.2 2127.72 2805.57 2127.96C2802.93 2128.2 2800.3 2128.38 2797.66 2128.49C2795.01 2128.6 2792.37 2128.64 2789.73 2128.62C2787.08 2128.59 2784.44 2128.5 2781.81 2128.35C2779.17 2128.19 2776.53 2127.97 2773.91 2127.68C2771.28 2127.39 2768.66 2127.04 2766.05 2126.62C2763.44 2126.2 2760.84 2125.71 2758.26 2125.16C2755.67 2124.61 2753.1 2124 2750.55 2123.32C2747.99 2122.64 2745.45 2121.9 2742.94 2121.09C2712.65 2111.61 2658.26 2075.34 2650.62 2042.71C2647.37 2028.84 2652.33 2013.44 2644.67 2000.31C2641.91 1995.59 2637.57 1995.68 2632.46 1994.51L2629.29 1993.82C2626.73 1990.04 2625.38 1987.14 2624.08 1982.7C2614.04 1948.36 2610.52 1879.72 2628.65 1847.76C2653.96 1833.81 2641.82 1814.6 2655.93 1794.79C2671.73 1772.61 2705.21 1763.41 2720.71 1742.26C2721.12 1741.7 2721.5 1741.12 2721.89 1740.55Z" fill="black"/>
<path d="M2775.83 1762.36C2789.15 1760.44 2800.96 1760.98 2813.53 1766.38C2848.55 1781.47 2862.04 1822.24 2874.25 1855.05C2859.88 1889 2845.47 1905.95 2812.22 1921.66C2797.23 1925.26 2782.97 1927.48 2768.04 1922.05C2749.43 1915.29 2736.43 1900.32 2728.93 1882.36C2719.11 1858.84 2717.63 1829.15 2727.9 1805.65C2737.92 1782.7 2753.67 1771.68 2775.83 1762.36Z" fill="#B0B7C3"/>
<path d="M3743.47 1709.84C3792.32 1709 3834.88 1710.55 3876.41 1739.29C3919.03 1768.78 3942.85 1816.71 3951.35 1866.91C3951.69 1868.77 3952 1870.64 3952.28 1872.52C3952.56 1874.4 3952.82 1876.27 3953.06 1878.15C3953.3 1880.04 3953.52 1881.92 3953.7 1883.81C3953.89 1885.7 3954.06 1887.58 3954.21 1889.47C3954.34 1891.37 3954.45 1893.26 3954.54 1895.15C3954.64 1897.05 3954.71 1898.94 3954.77 1900.84C3954.8 1902.73 3954.82 1904.63 3954.82 1906.53C3954.82 1908.42 3954.79 1910.32 3954.74 1912.22C3954.68 1914.11 3954.61 1916.01 3954.51 1917.9C3954.42 1919.79 3954.3 1921.68 3954.15 1923.57C3954 1925.47 3953.83 1927.36 3953.65 1929.24C3953.44 1931.13 3953.22 1933.01 3952.98 1934.89C3952.73 1936.77 3952.47 1938.65 3952.19 1940.52C3951.9 1942.4 3951.58 1944.27 3951.24 1946.14C3950.91 1948 3950.54 1949.86 3950.15 1951.72C3949.78 1953.58 3949.38 1955.43 3948.95 1957.28C3948.52 1959.12 3948.06 1960.96 3947.58 1962.8C3947.1 1964.64 3946.59 1966.46 3946.07 1968.29C3945.55 1970.11 3945.01 1971.92 3944.45 1973.73C3943.87 1975.54 3943.27 1977.34 3942.66 1979.14C3942.04 1980.93 3941.4 1982.72 3940.73 1984.49C3940.08 1986.27 3939.4 1988.04 3938.69 1989.8C3937.98 1991.56 3937.25 1993.31 3936.51 1995.05C3935.76 1996.79 3934.99 1998.53 3934.18 2000.25C3933.4 2001.97 3932.59 2003.68 3931.75 2005.38C3930.91 2007.09 3930.05 2008.78 3929.15 2010.46C3928.27 2012.14 3927.38 2013.8 3926.47 2015.46C3925.53 2017.12 3924.59 2018.76 3923.64 2020.4C3922.67 2022.03 3921.68 2023.65 3920.68 2025.26C3919.67 2026.86 3918.65 2028.46 3917.6 2030.04C3916.56 2031.63 3915.5 2033.19 3914.41 2034.75C3913.31 2036.3 3912.2 2037.84 3911.09 2039.37C3909.17 2042.04 3907.18 2044.65 3905.13 2047.22C3903.08 2049.78 3900.96 2052.29 3898.78 2054.76C3896.62 2057.21 3894.39 2059.62 3892.1 2061.97C3889.81 2064.32 3887.45 2066.61 3885.02 2068.84C3882.62 2071.07 3880.16 2073.24 3877.64 2075.35C3875.12 2077.46 3872.56 2079.5 3869.95 2081.48C3867.32 2083.46 3864.66 2085.38 3861.95 2087.23C3859.23 2089.07 3856.47 2090.85 3853.68 2092.56C3850.86 2094.28 3848.01 2095.91 3845.12 2097.48C3842.25 2099.05 3839.33 2100.55 3836.37 2101.97C3833.4 2103.4 3830.41 2104.75 3827.39 2106.02C3824.37 2107.29 3821.31 2108.49 3818.22 2109.61C3815.14 2110.74 3812.03 2111.78 3808.88 2112.75C3805.74 2113.71 3802.58 2114.6 3799.4 2115.41C3796.21 2116.22 3793.01 2116.95 3789.8 2117.6C3786.58 2118.25 3783.35 2118.82 3780.1 2119.31C3752.08 2120.73 3727.81 2118.72 3701.83 2107.47C3652.28 2086 3622.27 2046.44 3602.75 1997.3C3577.89 1934.67 3578.17 1882.34 3604.63 1821.02L3607.31 1821.14L3612.29 1828.05C3619.75 1817.22 3607.2 1799.96 3627.75 1774.45C3657.03 1738.08 3697.13 1714.64 3743.47 1709.84Z" fill="black"/>
<path d="M3748.61 1751.24C3761.25 1749.67 3774.82 1748.51 3786.64 1754.04C3807.93 1763.98 3822.27 1784.96 3830.47 1806.31C3839.97 1831.07 3844 1866.08 3832.98 1890.79C3818.02 1898.7 3803.51 1909.88 3786.37 1911.72C3772.91 1912.72 3759.46 1913.68 3746.49 1909.27C3727.22 1902.73 3711.7 1888.15 3702.78 1870.01C3692.18 1848.37 3690.08 1820.72 3698.53 1798.01C3708.09 1772.25 3724.65 1761.42 3748.61 1751.24Z" fill="#B0B7C3"/>
</g>
<defs>
<clipPath id="clip0_4_39">
<rect width="5941" height="4846" fill="white" transform="translate(130)"/>
</clipPath>
</defs>
</svg>
